<svg data-v-f2e577de=""
  xmlns="http://www.w3.org/2000/svg"
  xmlns:xlink="http://www.w3.org/1999/xlink" version="1.1" baseProfile="full" viewBox="0 0 200 200" width="96" height="96" transform="rotate(180)">
  <path data-v-f2e577de="" d="M 125.3,145.3 L 129.1,139 133.1,132.8 137.2,126.7 141.3,120.6 145.6,114.8 150,109 154.6,103.3 159.3,97.8 164.2,92.5 169.3,87.5 170.8,88.6 167.2,94.8 163.6,101 159.9,107.1 156.3,113.2 152.7,119.4 149.2,125.6 145.7,131.9 142.3,138.2 139,144.6 135.8,151" fill="black"></path>
  <path data-v-f2e577de="" d="M 136.3,150.2 L 125.3,145.3 135.3,152" fill="black"></path>
  <path data-v-f2e577de="" d="M 125.3,145.3 L 123.6,142.1 129.4,141.9" fill="black"></path>
  <path data-v-f2e577de="" d="M 138.7,129.2 L 134.1,126.6 129.6,124.2 125.6,121.7 122,119.2 118.7,116.6 115.8,114 113.1,111.3 110.8,108.6 108.9,105.8 107.3,102.8 118.7,99 119.1,101 119.9,103.2 121,105.6 122.5,108.3 124.5,111.1 126.8,114.1 129.5,117.3 132.5,120.6 135.9,124.2 139.7,127.7" fill="black"></path>
  <path data-v-f2e577de="" d="M 107.3,102.8 L 107.7,98.2 111.1,95.2 115.7,95.6 118.7,99" fill="black"></path>
  <path data-v-f2e577de="" d="M 57.1,144.4 L 60.5,138.8 64.1,133.3 67.8,128 71.6,122.7 75.7,117.6 80,112.6 84.5,107.8 89.2,103.1 94.1,98.6 99.4,94.4 100.7,95.7 96.9,101.2 93.2,106.6 89.6,111.9 86,117.2 82.6,122.6 79.3,127.9 76.2,133.4 73.3,138.8 70.5,144.3 67.8,149.9" fill="black"></path>
  <path data-v-f2e577de="" d="M 68.3,149 L 57.1,144.4 67.3,151" fill="black"></path>
  <path data-v-f2e577de="" d="M 57.1,144.4 L 55.4,141.3 61.3,140.9" fill="black"></path>
  <path data-v-f2e577de="" d="M 73.7,129.3 L 69.1,127.4 64.9,125.4 60.8,123.3 56.9,121 53.3,118.6 49.9,116 46.8,113.4 43.8,110.7 41,107.8 38.5,104.8 48.6,98.3 50.1,101.1 52,103.9 53.9,106.8 56.1,109.6 58.6,112.5 61.4,115.5 64.4,118.5 67.6,121.5 70.9,124.7 74.6,127.8" fill="black"></path>
  <path data-v-f2e577de="" d="M 38.5,104.8 L 37.9,100.3 40.4,96.5 44.9,95.8 48.6,98.3" fill="black"></path>
  <path data-v-f2e577de="" d="M 184,75 L 16,75 16,71 184,71" fill="black"></path>
  <path data-v-f2e577de="" d="M 16,75 L 40,73 28,85" fill="black"></path>
  <path data-v-f2e577de="" d="M 94,91 L 94,19 106,13 106,93" fill="black"></path>
  <path data-v-f2e577de="" d="M 94,91 L 91,89 96,86" fill="black"></path>
  <path data-v-f2e577de="" d="M 120.8,188.5 L 116.9,187.3 113.1,186.4 109.5,185.1 106.2,183.7 103.1,182.2 100.2,180.4 97.5,178.5 95.1,176.3 92.9,174 91,171.4 101.8,166 102.4,167.9 103.3,169.9 104.4,171.9 105.9,174 107.7,176.1 109.8,178.2 112.3,180.4 115,182.6 118,184.9 121.5,186.8" fill="black"></path>
  <path data-v-f2e577de="" d="M 91,171.4 L 90.8,166.9 93.7,163.4 98.3,163.1 101.8,166" fill="black"></path>
  <path data-v-f2e577de="" d="M 179,157 L 26,157 26,153 179,153" fill="black"></path>
  <path data-v-f2e577de="" d="M 26,157 L 50,155 38,167" fill="black"></path>
</svg>
