<svg xmlns="http://www.w3.org/2000/svg"
  xmlns:xlink="http://www.w3.org/1999/xlink" version="1.1" baseProfile="full" viewBox="0 0 200 200" width="50" height="50">
  <path d="M 81.3,24.6 L 85.5,26.3 89.6,28 93.4,30 97,32.3 100.3,34.9 103.3,37.7 106.1,40.7 108.6,44 110.8,47.4 112.6,51.1 101.3,55.1 100.5,52.1 99.4,49.1 98.1,46.1 96.4,43.2 94.5,40.3 92.3,37.5 89.8,34.6 87,31.8 83.9,28.9 80.4,26.2" fill="black"></path>
  <path d="M 112.6,51.1 L 112.3,55.7 108.9,58.8 104.4,58.5 101.3,55.1" fill="black"></path>
  <path d="M 20,68 L 182,68 182,72 20,72" fill="black"></path>
  <path d="M 182,68 L 158,70 170,58" fill="black"></path>
  <path d="M 115.4,81.7 L 111.2,91.5 105.6,101.2 98.7,110.7 90.4,120.2 80.8,129.5 69.9,138.8 57.6,147.9 43.9,157 28.9,166 12.4,174.7 11.5,173.2 26.9,162.8 40.9,152.6 53.6,142.7 65,133 74.9,123.4 83.5,113.9 90.7,104.7 96.5,95.6 100.9,86.7 103.9,78.1" fill="black"></path>
  <path d="M 103.6,79 L 115.4,81.7 104.4,76.5" fill="black"></path>
  <path d="M 115.4,81.7 L 117.6,84.5 111.9,85.9" fill="black"></path>
  <path d="M 90.2,115.4 L 101.7,117.8 112.5,120.5 122.6,123.5 132,126.6 140.7,129.9 148.6,133.3 155.9,136.9 162.5,140.6 168.5,144.5 173.8,148.5 165.7,157.3 161.5,153.5 156.6,149.5 150.9,145.6 144.4,141.6 137.1,137.6 129.1,133.6 120.3,129.6 110.8,125.6 100.6,121.4 89.7,117.1" fill="black"></path>
  <path d="M 173.8,148.5 L 175.7,152.7 174.2,157 170,158.9 165.7,157.3" fill="black"></path>
</svg>