<svg xmlns="http://www.w3.org/2000/svg"
  xmlns:xlink="http://www.w3.org/1999/xlink" version="1.1" baseProfile="full" viewBox="-2 -20 25 25" width="50" height="50">
  <path d="M 17.109375 -13.859375 L 18.09375 -15.09375 L 19.4375 -13.828125 C 19.46875 -13.785156 19.523438 -13.703125 19.609375 -13.578125 C 19.609375 -13.441406 19.523438 -13.375 19.359375 -13.375 L 3.65625 -13.375 C 3.363281 -13.375 2.894531 -13.316406 2.25 -13.203125 L 1.921875 -13.859375 Z M 11.890625 -6.484375 C 12.003906 -6.441406 12.0625 -6.398438 12.0625 -6.359375 C 12.0625 -6.285156 12.019531 -6.21875 11.9375 -6.15625 L 11.203125 -5.828125 L 11.203125 -4.515625 L 17.71875 -4.515625 L 18.703125 -5.703125 L 19.9375 -4.46875 C 20 -4.425781 20.066406 -4.34375 20.140625 -4.21875 C 20.140625 -4.0625 20.054688 -3.984375 19.890625 -3.984375 L 11.203125 -3.984375 L 11.203125 -0.90625 L 11.28125 1.171875 C 11.289062 1.378906 11.140625 1.582031 10.828125 1.78125 C 10.523438 1.957031 10.265625 2.039062 10.046875 2.03125 L 10.125 -0.9375 L 10.125 -3.984375 L 3.03125 -3.984375 C 2.75 -3.984375 2.285156 -3.925781 1.640625 -3.8125 L 1.3125 -4.515625 L 10.125 -4.515625 L 10.125 -7.09375 Z M 8.8125 -12.34375 C 8.957031 -12.175781 8.929688 -12.054688 8.734375 -11.984375 C 8.554688 -11.921875 8.378906 -11.847656 8.203125 -11.765625 C 8.023438 -11.691406 7.875 -11.554688 7.75 -11.359375 C 7.625 -11.179688 7.421875 -10.867188 7.140625 -10.421875 C 7.984375 -10.003906 8.625 -9.632812 9.0625 -9.3125 C 9.5 -8.96875 9.757812 -8.613281 9.84375 -8.25 C 9.9375 -7.875 9.910156 -7.585938 9.765625 -7.390625 C 9.597656 -7.179688 9.421875 -7.097656 9.234375 -7.140625 C 9.054688 -7.160156 8.914062 -7.335938 8.8125 -7.671875 C 8.738281 -7.992188 8.535156 -8.363281 8.203125 -8.78125 C 7.898438 -9.226562 7.460938 -9.640625 6.890625 -10.015625 C 5.617188 -8.117188 4.472656 -6.679688 3.453125 -5.703125 L 3.203125 -5.984375 C 4.898438 -8.191406 6.265625 -10.585938 7.296875 -13.171875 Z M 15.703125 -12.390625 C 15.910156 -12.222656 15.910156 -12.097656 15.703125 -12.015625 C 15.523438 -11.960938 15.347656 -11.894531 15.171875 -11.8125 C 15.015625 -11.738281 14.851562 -11.585938 14.6875 -11.359375 C 14.507812 -11.148438 14.273438 -10.820312 13.984375 -10.375 C 14.890625 -10.03125 15.671875 -9.675781 16.328125 -9.3125 C 16.984375 -8.925781 17.378906 -8.53125 17.515625 -8.125 C 17.640625 -7.695312 17.625 -7.378906 17.46875 -7.171875 C 17.3125 -6.972656 17.132812 -6.894531 16.9375 -6.9375 C 16.757812 -6.957031 16.582031 -7.175781 16.40625 -7.59375 C 16.226562 -7.957031 15.882812 -8.363281 15.375 -8.8125 C 14.914062 -9.269531 14.359375 -9.671875 13.703125 -10.015625 C 12.921875 -8.898438 12.046875 -7.859375 11.078125 -6.890625 L 10.828125 -7.171875 C 11.867188 -8.566406 13.03125 -10.566406 14.3125 -13.171875 Z M 9.0625 -17.3125 C 10.03125 -16.851562 10.703125 -16.441406 11.078125 -16.078125 C 11.429688 -15.753906 11.625 -15.425781 11.65625 -15.09375 C 11.6875 -14.769531 11.628906 -14.507812 11.484375 -14.3125 C 11.359375 -14.144531 11.179688 -14.0625 10.953125 -14.0625 C 10.722656 -14.082031 10.570312 -14.265625 10.5 -14.609375 C 10.457031 -14.921875 10.320312 -15.273438 10.09375 -15.671875 C 9.875 -16.078125 9.476562 -16.523438 8.90625 -17.015625 Z M 9.0625 -17.3125 " style="stroke: none;"></path>
</svg>