<svg xmlns="http://www.w3.org/2000/svg"
  xmlns:xlink="http://www.w3.org/1999/xlink" version="1.1" baseProfile="full" viewBox="0 0 200 200" width="50" height="50">
  <path d="M 106,16 L 106,57 94,57 94,14" fill="black"></path>
  <path d="M 106,16 L 109,18 104,21" fill="black"></path>
  <path d="M 17,53 L 183,53 183,57 17,57" fill="black"></path>
  <path d="M 183,53 L 159,55 171,43" fill="black"></path>
  <path d="M 147.2,55 L 146.8,56.3 140.9,75.4 133.4,93.2 124.1,109.7 113.3,124.8 100.7,138.7 86.6,151.1 70.9,162.2 53.6,171.9 34.7,180.1 14.2,186.8 13.7,185.1 33.2,176.6 51,167.1 67.2,156.7 81.8,145.3 94.7,132.7 105.9,119.1 115.6,104.4 123.6,88.6 130.2,71.7 134.7,55" fill="black"></path>
</svg>