<svg xmlns="http://www.w3.org/2000/svg"
  xmlns:xlink="http://www.w3.org/1999/xlink" version="1.1" baseProfile="full" viewBox="0 0 200 200" width="50" height="50">
  <path d="M 81.2,15.4 L 85.2,16.4 89.1,17.1 92.8,18.1 96.2,19.2 99.3,20.4 102.3,21.8 105,23.4 107.4,25.1 109.7,27.1 111.6,29.3 101.3,35.4 100.7,33.9 99.9,32.3 98.7,30.5 97.2,28.7 95.3,26.8 93,24.9 90.4,23 87.5,21 84.3,18.9 80.6,17.1" fill="black"></path>
  <path d="M 111.6,29.3 L 112.2,33.9 109.5,37.5 104.9,38.1 101.3,35.4" fill="black"></path>
  <path d="M 20,43 L 182,43 182,47 20,47" fill="black"></path>
  <path d="M 182,43 L 158,45 170,33" fill="black"></path>
  <path d="M 15,176 L 185,176 185,180 15,180" fill="black"></path>
  <path d="M 185,176 L 161,178 173,166" fill="black"></path>
  <path d="M 136,58.9 L 135.1,75.2 132.8,90.4 129,104.4 123.6,117.1 116.7,128.5 108.4,138.6 98.7,147.4 87.5,154.7 75,160.5 61.2,164.8 60.7,163.1 73.4,157 84.7,150.1 94.5,142.3 102.8,133.6 109.7,123.9 115.2,113.1 119.4,101.3 122.2,88.4 123.8,74.3 124,59" fill="black"></path>
  <path d="M 124,60 L 136,58.9 123.9,56.7" fill="black"></path>
  <path d="M 136,58.9 L 139,60.8 134,63.9" fill="black"></path>
  <path d="M 134.9,71 L 136.5,82.3 138.6,92.9 141.3,102.8 144.8,112.1 148.9,120.7 153.8,128.6 159.4,135.9 165.7,142.7 172.8,148.9 180.7,154.5 173.2,165.4 164.7,158.4 157.2,150.9 150.7,142.7 145.1,134 140.5,124.7 136.9,114.9 134.3,104.6 132.8,93.9 132.3,82.6 133.1,71" fill="black"></path>
  <path d="M 173.2,165.4 L 180.7,154.5 184.2,156.9" fill="black"></path>
  <path d="M 68,58.8 L 67.6,74.1 66.1,88.3 63.7,101.4 60.2,113.5 55.6,124.4 50,134.2 43.3,142.8 35.6,150.2 26.9,156.2 17.4,160.8 16.5,159.1 24.8,153.1 32,146.3 38.2,138.7 43.5,130.3 47.8,121 51.3,110.7 53.8,99.4 55.5,87 56.2,73.6 56,59.1" fill="black"></path>
  <path d="M 56,60.1 L 68,58.8 55.9,56.8" fill="black"></path>
  <path d="M 68,58.8 L 71,60.7 66.1,63.8" fill="black"></path>
  <path d="M 63.3,96.7 L 68,99 72.6,101.3 76.8,103.8 80.7,106.3 84.3,109 87.7,111.7 90.8,114.5 93.7,117.3 96.3,120.3 98.6,123.3 88.3,129.4 86.9,126.7 85.3,123.8 83.4,120.9 81.2,118 78.7,114.9 76,111.8 73,108.5 69.7,105.2 66.1,101.7 62.3,98.3" fill="black"></path>
  <path d="M 98.6,123.3 L 99.2,127.9 96.5,131.5 91.9,132.1 88.3,129.4" fill="black"></path>
</svg>