<svg xmlns="http://www.w3.org/2000/svg"
  xmlns:xlink="http://www.w3.org/1999/xlink" version="1.1" baseProfile="full" viewBox="-2 -20 25 25" height="50" width="50">
  <path d="M 1.8125 -11.5625 L 16.28125 -11.5625 L 17.3125 -12.796875 L 18.828125 -11.4375 C 18.867188 -11.382812 18.894531 -11.316406 18.90625 -11.234375 C 18.90625 -11.078125 18.8125 -11 18.625 -11 L 3.53125 -11 C 3.226562 -11 2.75 -10.941406 2.09375 -10.828125 Z M 8.28125 -17.234375 L 8.484375 -17.5625 C 9.679688 -16.9375 10.546875 -16.359375 11.078125 -15.828125 C 11.597656 -15.335938 11.867188 -14.847656 11.890625 -14.359375 C 11.890625 -13.890625 11.769531 -13.535156 11.53125 -13.296875 C 11.28125 -13.035156 11.019531 -12.960938 10.75 -13.078125 C 10.5 -13.191406 10.332031 -13.492188 10.25 -13.984375 C 10.1875 -14.472656 10.035156 -14.953125 9.796875 -15.421875 C 9.597656 -15.859375 9.09375 -16.460938 8.28125 -17.234375 Z M 8.28125 -17.234375 " style="stroke: none;"></path>
</svg>