<svg xmlns="http://www.w3.org/2000/svg"
  xmlns:xlink="http://www.w3.org/1999/xlink" version="1.1" baseProfile="full" viewBox="0 0 200 200" width="50" height="50">
  <path d="M 81.2,12.5 L 85.3,13.6 89.3,14.6 93,15.9 96.5,17.4 99.7,19.1 102.7,20.9 105.5,23 108,25.4 110.2,27.9 112.1,30.7 101.2,35.8 100.6,33.7 99.7,31.6 98.4,29.5 96.9,27.4 95,25.2 92.8,22.9 90.3,20.7 87.4,18.5 84.2,16.1 80.6,14.1" fill="black"></path>
  <path d="M 112.1,30.7 L 112.3,35.3 109.2,38.7 104.7,38.8 101.2,35.8" fill="black"></path>
  <path d="M 20,46 L 182,46 182,50 20,50" fill="black"></path>
  <path d="M 182,46 L 158,48 170,36" fill="black"></path>
  <path d="M 83.9,65.2 L 82.5,80.7 79.9,95.5 76.3,109.6 71.6,123 65.8,135.8 58.9,147.8 50.9,159 41.9,169.4 31.7,179 20.5,187.6 19.4,186.3 29.1,176.3 37.8,165.9 45.6,155.1 52.4,143.9 58.1,132.1 62.9,119.8 66.6,106.9 69.4,93.5 71.1,79.4 71.9,64.7" fill="black"></path>
  <path d="M 71.9,65.7 L 83.9,65.2 72,62.4" fill="black"></path>
  <path d="M 83.9,65.2 L 86.8,67.3 81.7,70.1" fill="black"></path>
  <path d="M 74.3,104.9 L 80.1,108.2 85.6,111.8 90.8,115.5 95.9,119.5 100.7,123.5 105.3,127.6 109.7,131.8 114,136.1 118,140.5 121.9,144.9 112.4,152.2 109.2,147.6 105.8,143.1 102.3,138.6 98.6,134 94.7,129.5 90.7,125 86.5,120.4 82.1,115.8 77.7,111.1 73.2,106.3" fill="black"></path>
  <path d="M 121.9,144.9 L 123,149.4 120.8,153.3 116.3,154.4 112.4,152.2" fill="black"></path>
  <path d="M 186,67 L 186,109 174,109 174,65" fill="black"></path>
  <path d="M 186,67 L 189,69 184,72" fill="black"></path>
  <path d="M 174,109 L 176.4,112.6 180,115 183.6,112.6 186,109" fill="black"></path>
  <path d="M 186,109 L 184.9,120.6 182.2,131.5 178,141.6 172.3,150.9 165.1,159.3 156.4,166.8 146.4,173.5 135.1,179.2 122.3,184 108.2,187.8 107.7,186.1 120.9,180.4 132.7,174.4 142.9,167.9 151.6,161 158.8,153.6 164.6,145.7 168.9,137.3 171.9,128.5 173.6,119 174,109" fill="black"></path>
</svg>