<svg xmlns="http://www.w3.org/2000/svg"
  xmlns:xlink="http://www.w3.org/1999/xlink" version="1.1" baseProfile="full" viewBox="-2 -20 25 25" height="50" width="50">
  <path d="M 1.0625 -11.890625 L 9.890625 -11.890625 L 9.890625 -17.140625 L 11.765625 -16.578125 C 11.847656 -16.535156 11.878906 -16.453125 11.859375 -16.328125 C 11.859375 -16.285156 11.800781 -16.242188 11.6875 -16.203125 L 10.953125 -15.875 L 10.953125 -11.890625 L 16.984375 -11.890625 L 17.890625 -12.96875 L 19.234375 -11.734375 C 19.273438 -11.691406 19.300781 -11.632812 19.3125 -11.5625 C 19.3125 -11.40625 19.234375 -11.328125 19.078125 -11.328125 L 11.8125 -11.328125 C 12.632812 -9.191406 13.414062 -7.585938 14.15625 -6.515625 C 14.875 -5.484375 15.582031 -4.648438 16.28125 -4.015625 C 16.96875 -3.398438 17.640625 -2.910156 18.296875 -2.546875 C 18.898438 -2.210938 19.609375 -1.925781 20.421875 -1.6875 L 20.421875 -1.359375 C 19.679688 -1.367188 19.191406 -1.328125 18.953125 -1.234375 C 18.703125 -1.109375 18.457031 -0.929688 18.21875 -0.703125 C 17.09375 -1.597656 16.21875 -2.375 15.59375 -3.03125 C 14.96875 -3.6875 14.253906 -4.671875 13.453125 -5.984375 C 12.671875 -7.316406 11.972656 -9.097656 11.359375 -11.328125 L 10.953125 -11.328125 L 10.953125 -0.984375 L 11.03125 1.453125 C 11.039062 1.691406 10.890625 1.910156 10.578125 2.109375 C 10.296875 2.285156 10.035156 2.382812 9.796875 2.40625 L 9.890625 -1.0625 L 9.890625 -10.375 C 9.054688 -8.894531 8.25 -7.625 7.46875 -6.5625 C 6.675781 -5.519531 5.757812 -4.441406 4.71875 -3.328125 C 3.675781 -2.210938 2.378906 -1.082031 0.828125 0.0625 L 0.609375 -0.171875 C 1.960938 -1.398438 3.097656 -2.53125 4.015625 -3.5625 C 4.929688 -4.59375 5.847656 -5.785156 6.765625 -7.140625 C 7.671875 -8.453125 8.476562 -9.847656 9.1875 -11.328125 L 2.796875 -11.328125 C 2.503906 -11.304688 2.035156 -11.234375 1.390625 -11.109375 Z M 1.0625 -11.890625 " style="stroke: none;"></path>
</svg>