<svg xmlns="http://www.w3.org/2000/svg"
  xmlns:xlink="http://www.w3.org/1999/xlink" version="1.1" baseProfile="full" viewBox="-2 -20 25 25" height="50" width="50">
  <path d="M 9.140625 -11.5625 L 13.625 -11.5625 L 13.625 -16.8125 L 15.21875 -16.15625 C 15.5625 -16.050781 15.578125 -15.898438 15.265625 -15.703125 L 14.640625 -15.375 L 14.640625 -11.5625 L 17.71875 -11.5625 L 18.328125 -12.515625 L 19.6875 -11.40625 C 19.726562 -11.351562 19.753906 -11.296875 19.765625 -11.234375 C 19.765625 -11.078125 19.671875 -11 19.484375 -11 L 15.21875 -11 C 15.875 -8.695312 16.488281 -7.015625 17.0625 -5.953125 C 17.625 -4.878906 18.171875 -4.054688 18.703125 -3.484375 C 19.191406 -2.953125 19.796875 -2.582031 20.515625 -2.375 L 20.515625 -2.046875 C 20.046875 -2.035156 19.6875 -2.007812 19.4375 -1.96875 C 19.21875 -1.914062 18.957031 -1.765625 18.65625 -1.515625 C 18.039062 -2.203125 17.550781 -2.914062 17.1875 -3.65625 C 16.8125 -4.332031 16.441406 -5.164062 16.078125 -6.15625 C 15.722656 -7.125 15.242188 -8.75 14.640625 -11.03125 L 14.640625 -0.90625 L 14.71875 1.25 C 14.71875 1.457031 14.582031 1.660156 14.3125 1.859375 C 14.070312 2.015625 13.8125 2.113281 13.53125 2.15625 L 13.625 -0.609375 L 13.625 -9.796875 C 13.070312 -8.117188 12.304688 -6.46875 11.328125 -4.84375 C 10.328125 -3.1875 9.109375 -1.679688 7.671875 -0.328125 L 7.390625 -0.53125 C 8.597656 -1.96875 9.691406 -3.597656 10.671875 -5.421875 C 11.597656 -7.234375 12.347656 -9.09375 12.921875 -11 L 10.453125 -11 C 10.160156 -11 9.847656 -10.941406 9.515625 -10.828125 Z M 0.5 -12.515625 L 4.640625 -12.515625 L 4.640625 -17.109375 L 6.3125 -16.40625 C 6.550781 -16.28125 6.566406 -16.15625 6.359375 -16.03125 L 5.65625 -15.796875 L 5.65625 -12.515625 L 7.75 -12.515625 L 8.328125 -13.328125 L 9.4375 -12.34375 C 9.582031 -12.101562 9.554688 -11.96875 9.359375 -11.9375 L 5.65625 -11.9375 L 5.65625 -10.09375 C 6.394531 -9.78125 7.050781 -9.425781 7.625 -9.03125 C 8.195312 -8.65625 8.566406 -8.269531 8.734375 -7.875 C 8.910156 -7.488281 8.953125 -7.175781 8.859375 -6.9375 C 8.753906 -6.65625 8.5625 -6.53125 8.28125 -6.5625 C 8 -6.59375 7.78125 -6.8125 7.625 -7.21875 C 7.5 -7.613281 7.253906 -8.035156 6.890625 -8.484375 C 6.523438 -8.898438 6.113281 -9.269531 5.65625 -9.59375 L 5.65625 -0.53125 L 5.703125 1.375 C 5.703125 1.5625 5.566406 1.738281 5.296875 1.90625 C 5.046875 2.070312 4.796875 2.179688 4.546875 2.234375 L 4.640625 -0.53125 L 4.640625 -8.734375 C 4.304688 -7.753906 3.726562 -6.609375 2.90625 -5.296875 C 2.070312 -3.984375 1.347656 -3.023438 0.734375 -2.421875 L 0.53125 -2.625 C 0.925781 -3.1875 1.40625 -3.976562 1.96875 -5 C 2.53125 -6.007812 3.050781 -7.144531 3.53125 -8.40625 C 3.976562 -9.664062 4.332031 -10.84375 4.59375 -11.9375 L 1.96875 -11.9375 C 1.664062 -11.9375 1.3125 -11.878906 0.90625 -11.765625 Z M 0.5 -12.515625 " style="stroke: none;"></path>
</svg>