<svg xmlns="http://www.w3.org/2000/svg"
  xmlns:xlink="http://www.w3.org/1999/xlink" version="1.1" baseProfile="full" viewBox="-2 -20 25 25" height="50" width="50">
  <path data-v-ef8a65d6="" d="M 1.1875 -6.15625 L 5.453125 -6.15625 L 5.453125 -9.3125 L 6.890625 -8.703125 C 7.015625 -8.660156 7.082031 -8.617188 7.09375 -8.578125 C 7.101562 -8.453125 7.0625 -8.367188 6.96875 -8.328125 L 6.484375 -8.125 L 6.484375 -6.15625 L 7.671875 -6.15625 L 8.375 -7.09375 L 9.4375 -6.03125 C 9.476562 -5.988281 9.503906 -5.945312 9.515625 -5.90625 C 9.515625 -5.738281 9.460938 -5.65625 9.359375 -5.65625 L 6.484375 -5.65625 L 6.484375 -4.015625 C 7.617188 -3.734375 8.367188 -3.488281 8.734375 -3.28125 C 9.066406 -3.101562 9.300781 -2.882812 9.4375 -2.625 C 9.570312 -2.363281 9.582031 -2.128906 9.46875 -1.921875 C 9.394531 -1.703125 9.257812 -1.59375 9.0625 -1.59375 C 8.851562 -1.59375 8.691406 -1.71875 8.578125 -1.96875 C 8.453125 -2.195312 8.242188 -2.457031 7.953125 -2.75 C 7.671875 -3 7.179688 -3.285156 6.484375 -3.609375 L 6.484375 -0.25 L 6.5625 1.453125 C 6.5625 1.628906 6.425781 1.804688 6.15625 1.984375 C 5.894531 2.148438 5.632812 2.234375 5.375 2.234375 L 5.453125 -0.171875 L 5.453125 -4.265625 C 4.910156 -3.398438 4.28125 -2.539062 3.5625 -1.6875 C 2.863281 -0.851562 1.953125 0.015625 0.828125 0.921875 L 0.609375 0.71875 C 1.609375 -0.34375 2.363281 -1.222656 2.875 -1.921875 C 3.363281 -2.617188 3.757812 -3.195312 4.0625 -3.65625 C 4.332031 -4.113281 4.710938 -4.78125 5.203125 -5.65625 L 2.828125 -5.65625 C 2.566406 -5.65625 2.144531 -5.601562 1.5625 -5.5 Z M 10.25 -6.109375 L 13.90625 -6.109375 L 13.90625 -9.359375 L 15.421875 -8.734375 C 15.546875 -8.691406 15.613281 -8.648438 15.625 -8.609375 C 15.625 -8.484375 15.570312 -8.40625 15.46875 -8.375 L 14.9375 -8.15625 L 14.9375 -6.109375 L 17.59375 -6.109375 L 18.296875 -7.0625 L 19.28125 -5.984375 C 19.300781 -5.941406 19.351562 -5.898438 19.4375 -5.859375 C 19.5 -5.703125 19.472656 -5.625 19.359375 -5.625 L 15.5 -5.625 C 15.84375 -4.800781 16.269531 -3.976562 16.78125 -3.15625 C 17.269531 -2.332031 17.828125 -1.675781 18.453125 -1.1875 C 19.023438 -0.695312 19.679688 -0.367188 20.421875 -0.203125 L 20.421875 0.109375 C 19.984375 0.109375 19.628906 0.144531 19.359375 0.21875 C 19.109375 0.257812 18.863281 0.425781 18.625 0.71875 C 18.207031 0.363281 17.835938 -0.0234375 17.515625 -0.453125 C 17.222656 -0.890625 16.851562 -1.519531 16.40625 -2.34375 C 15.96875 -3.15625 15.53125 -4.25 15.09375 -5.625 L 14.9375 -5.625 L 14.9375 -0.078125 L 15.015625 1.578125 C 15.015625 1.734375 14.890625 1.910156 14.640625 2.109375 C 14.410156 2.273438 14.140625 2.359375 13.828125 2.359375 L 13.90625 -0.28125 L 13.90625 -4.4375 C 13.289062 -3.5625 12.5 -2.585938 11.53125 -1.515625 C 10.570312 -0.492188 9.410156 0.46875 8.046875 1.375 L 7.828125 1.125 C 8.984375 0.113281 9.96875 -0.863281 10.78125 -1.8125 C 11.5625 -2.75 12.140625 -3.484375 12.515625 -4.015625 C 12.835938 -4.546875 13.148438 -5.082031 13.453125 -5.625 L 11.984375 -5.625 C 11.734375 -5.625 11.28125 -5.566406 10.625 -5.453125 Z M 2.703125 -14.234375 L 9.921875 -14.234375 L 9.921875 -17.109375 L 11.53125 -16.578125 C 11.632812 -16.535156 11.6875 -16.492188 11.6875 -16.453125 C 11.738281 -16.410156 11.738281 -16.351562 11.6875 -16.28125 L 11 -15.875 L 11 -14.234375 L 16.328125 -14.234375 L 17.140625 -15.296875 L 18.375 -14.0625 C 18.414062 -14.019531 18.441406 -13.96875 18.453125 -13.90625 C 18.453125 -13.769531 18.359375 -13.703125 18.171875 -13.703125 L 12.09375 -13.703125 C 13.207031 -12.617188 14.222656 -11.8125 15.140625 -11.28125 C 16.023438 -10.769531 16.773438 -10.425781 17.390625 -10.25 C 18.003906 -10.101562 18.660156 -9.992188 19.359375 -9.921875 L 19.359375 -9.515625 C 18.992188 -9.523438 18.664062 -9.5 18.375 -9.4375 C 18.082031 -9.363281 17.796875 -9.128906 17.515625 -8.734375 C 16.816406 -9.066406 16.117188 -9.460938 15.421875 -9.921875 C 14.765625 -10.390625 14.132812 -10.894531 13.53125 -11.4375 C 12.957031 -11.957031 12.289062 -12.710938 11.53125 -13.703125 L 11 -13.703125 L 11 -11.078125 L 11.078125 -9.4375 C 11.078125 -9.238281 10.941406 -9.046875 10.671875 -8.859375 C 10.390625 -8.679688 10.113281 -8.585938 9.84375 -8.578125 L 9.921875 -11.109375 L 9.921875 -13.203125 C 8.734375 -12.054688 7.546875 -11.113281 6.359375 -10.375 C 5.171875 -9.632812 3.613281 -8.894531 1.6875 -8.15625 L 1.5625 -8.453125 C 3.101562 -9.242188 4.425781 -9.992188 5.53125 -10.703125 C 6.601562 -11.410156 7.78125 -12.410156 9.0625 -13.703125 L 4.390625 -13.703125 C 4.097656 -13.703125 3.644531 -13.644531 3.03125 -13.53125 Z M 2.703125 -14.234375 " style="stroke: none;"></path>
</svg>