<svg xmlns="http://www.w3.org/2000/svg"
  xmlns:xlink="http://www.w3.org/1999/xlink" version="1.1" baseProfile="full" viewBox="-2 -20 25 25" height="50" width="50">
  <path d="M 5 -17.375 L 6.75 -16.796875 C 6.9375 -16.710938 6.976562 -16.640625 6.875 -16.578125 C 6.570312 -16.453125 6.363281 -16.304688 6.25 -16.140625 L 6.25 -14.515625 L 8.140625 -14.515625 L 8.609375 -15.28125 L 10.03125 -14.3125 C 10.21875 -14.132812 10.175781 -14.066406 9.90625 -14.109375 L 6.25 -14.109375 L 6.25 -13.40625 C 6.894531 -13.25 7.472656 -13.046875 7.984375 -12.796875 C 8.460938 -12.546875 8.789062 -12.273438 8.96875 -11.984375 C 9.125 -11.703125 9.175781 -11.457031 9.125 -11.25 C 9.070312 -11.039062 8.957031 -10.914062 8.78125 -10.875 C 8.601562 -10.84375 8.441406 -10.976562 8.296875 -11.28125 C 8.160156 -11.582031 7.945312 -11.882812 7.65625 -12.1875 C 7.351562 -12.445312 6.882812 -12.734375 6.25 -13.046875 L 6.25 -10.546875 L 6.28125 -9.375 C 6.289062 -9.070312 6.210938 -8.859375 6.046875 -8.734375 C 5.878906 -8.609375 5.628906 -8.515625 5.296875 -8.453125 C 5.347656 -8.953125 5.390625 -9.96875 5.421875 -11.5 L 5.421875 -13.078125 C 4.304688 -11.359375 2.691406 -10.066406 0.578125 -9.203125 L 0.46875 -9.46875 C 2.570312 -10.644531 4.117188 -12.191406 5.109375 -14.109375 L 2.796875 -14.109375 C 2.421875 -14.109375 2.109375 -14.019531 1.859375 -13.84375 L 1.15625 -14.515625 L 5.421875 -14.515625 L 5.421875 -16.34375 C 5.441406 -16.550781 5.234375 -16.8125 4.796875 -17.125 Z M 1.171875 -5.125 L 5.53125 -5.125 L 5.53125 -6.96875 C 5.53125 -7.28125 5.363281 -7.597656 5.03125 -7.921875 L 5.140625 -8.078125 L 6.890625 -7.421875 C 7.078125 -7.359375 7.117188 -7.285156 7.015625 -7.203125 C 6.722656 -7.085938 6.519531 -6.941406 6.40625 -6.765625 L 6.40625 -5.125 L 8.015625 -5.125 L 8.578125 -5.859375 L 9.6875 -5 C 9.90625 -4.78125 9.851562 -4.6875 9.53125 -4.71875 L 6.40625 -4.71875 L 6.40625 -3.71875 C 7 -3.570312 7.535156 -3.390625 8.015625 -3.171875 C 8.796875 -2.816406 9.238281 -2.382812 9.34375 -1.875 C 9.457031 -1.375 9.332031 -1.097656 8.96875 -1.046875 C 8.75 -1.046875 8.566406 -1.210938 8.421875 -1.546875 C 8.285156 -1.878906 8.0625 -2.195312 7.75 -2.5 C 7.46875 -2.757812 7.019531 -3.039062 6.40625 -3.34375 L 6.40625 0.71875 L 6.453125 1.890625 C 6.390625 2.421875 6.035156 2.734375 5.390625 2.828125 C 5.460938 2.296875 5.507812 1.503906 5.53125 0.453125 L 5.53125 -4.71875 L 5.03125 -4.71875 C 4.726562 -3.488281 4.347656 -2.523438 3.890625 -1.828125 C 3.410156 -1.097656 2.972656 -0.535156 2.578125 -0.140625 C 2.179688 0.253906 1.535156 0.753906 0.640625 1.359375 L 0.515625 1.109375 C 1.878906 -0.160156 2.828125 -1.359375 3.359375 -2.484375 C 3.648438 -3.046875 3.914062 -3.789062 4.15625 -4.71875 L 2.796875 -4.71875 C 2.421875 -4.726562 2.109375 -4.640625 1.859375 -4.453125 Z M 13.265625 -17.46875 L 15.015625 -16.734375 C 15.179688 -16.648438 15.210938 -16.578125 15.109375 -16.515625 C 14.847656 -16.390625 14.644531 -16.242188 14.5 -16.078125 L 14.5 -14.578125 L 17.109375 -14.578125 L 17.78125 -15.421875 L 19.203125 -14.375 C 19.398438 -14.195312 19.347656 -14.128906 19.046875 -14.171875 L 15.40625 -14.171875 C 15.601562 -13.804688 15.800781 -13.460938 16 -13.140625 C 16.582031 -12.210938 17.222656 -11.484375 17.921875 -10.953125 C 18.566406 -10.523438 19.347656 -10.242188 20.265625 -10.109375 L 20.265625 -9.84375 C 19.847656 -9.8125 19.535156 -9.78125 19.328125 -9.75 C 19.117188 -9.71875 18.910156 -9.554688 18.703125 -9.265625 C 17.304688 -10.128906 16.367188 -11.082031 15.890625 -12.125 C 15.628906 -12.613281 15.316406 -13.296875 14.953125 -14.171875 L 14.5 -14.171875 L 14.5 -10.390625 L 14.5625 -9.234375 C 14.5625 -8.929688 14.472656 -8.71875 14.296875 -8.59375 C 14.160156 -8.46875 13.90625 -8.375 13.53125 -8.3125 C 13.601562 -8.8125 13.660156 -9.828125 13.703125 -11.359375 L 13.703125 -14.171875 L 13.46875 -14.171875 C 13.15625 -13.171875 12.835938 -12.441406 12.515625 -11.984375 C 11.910156 -10.960938 10.675781 -9.875 8.8125 -8.71875 L 8.609375 -8.984375 C 10.429688 -10.390625 11.539062 -11.570312 11.9375 -12.53125 C 12.164062 -12.9375 12.367188 -13.484375 12.546875 -14.171875 L 11.5 -14.171875 C 11.125 -14.171875 10.816406 -14.082031 10.578125 -13.90625 L 9.859375 -14.578125 L 13.703125 -14.578125 L 13.703125 -16.28125 C 13.710938 -16.488281 13.503906 -16.804688 13.078125 -17.234375 Z M 9.890625 -5.140625 L 13.703125 -5.140625 L 13.703125 -6.765625 C 13.710938 -7.078125 13.539062 -7.394531 13.1875 -7.71875 L 13.3125 -7.875 L 15.046875 -7.21875 C 15.242188 -7.144531 15.285156 -7.070312 15.171875 -7 C 14.890625 -6.882812 14.6875 -6.738281 14.5625 -6.5625 L 14.5625 -5.140625 L 17.59375 -5.140625 L 18.1875 -5.921875 L 19.421875 -5.03125 C 19.722656 -4.8125 19.648438 -4.710938 19.203125 -4.734375 L 15.3125 -4.734375 C 15.59375 -4.234375 15.851562 -3.769531 16.09375 -3.34375 C 16.695312 -2.351562 17.375 -1.570312 18.125 -1 C 18.8125 -0.550781 19.632812 -0.257812 20.59375 -0.125 L 20.59375 0.171875 C 20.164062 0.191406 19.835938 0.222656 19.609375 0.265625 C 19.390625 0.304688 19.171875 0.476562 18.953125 0.78125 C 17.472656 -0.132812 16.488281 -1.144531 16 -2.25 C 15.695312 -2.84375 15.328125 -3.671875 14.890625 -4.734375 L 14.5625 -4.734375 L 14.5625 0.65625 L 14.625 1.828125 C 14.550781 2.359375 14.195312 2.671875 13.5625 2.765625 C 13.625 2.234375 13.671875 1.441406 13.703125 0.390625 L 13.703125 -4.734375 L 13.25 -4.734375 C 12.90625 -3.503906 12.5625 -2.617188 12.21875 -2.078125 C 11.625 -0.960938 10.410156 0.222656 8.578125 1.484375 L 8.375 1.1875 C 10.15625 -0.34375 11.25 -1.628906 11.65625 -2.671875 C 11.925781 -3.191406 12.148438 -3.878906 12.328125 -4.734375 L 11.5 -4.734375 C 11.132812 -4.753906 10.828125 -4.664062 10.578125 -4.46875 Z M 9.890625 -5.140625 " style="stroke: none;"></path>
</svg>