<svg xmlns="http://www.w3.org/2000/svg"
  xmlns:xlink="http://www.w3.org/1999/xlink" version="1.1" baseProfile="full" viewBox="-2 -20 25 25" height="50" width="50">
  <path d="M 5.046875 -9.5625 C 5.253906 -10.082031 5.414062 -11 5.53125 -12.3125 L 5.984375 -12.3125 C 6.023438 -10.300781 5.945312 -9.015625 5.75 -8.453125 C 5.550781 -7.859375 5.273438 -7.421875 4.921875 -7.140625 C 4.566406 -6.847656 4.210938 -6.679688 3.859375 -6.640625 C 3.515625 -6.597656 3.28125 -6.679688 3.15625 -6.890625 C 3.019531 -7.097656 3.035156 -7.300781 3.203125 -7.5 C 3.328125 -7.675781 3.613281 -7.9375 4.0625 -8.28125 C 4.507812 -8.625 4.835938 -9.050781 5.046875 -9.5625 Z M 9.59375 -17.265625 C 10.988281 -16.773438 11.726562 -16.488281 11.8125 -16.40625 C 11.894531 -16.351562 11.894531 -16.285156 11.8125 -16.203125 C 11.757812 -16.148438 11.457031 -16.015625 10.90625 -15.796875 L 10.90625 -13.40625 C 11.238281 -10.644531 11.632812 -8.609375 12.09375 -7.296875 C 12.507812 -6.015625 13.070312 -4.8125 13.78125 -3.6875 C 14.476562 -2.582031 15.335938 -1.664062 16.359375 -0.9375 C 17.347656 -0.195312 18.484375 0.269531 19.765625 0.46875 L 19.765625 0.875 C 19.066406 0.875 18.578125 0.945312 18.296875 1.09375 C 18.003906 1.195312 17.742188 1.375 17.515625 1.625 C 16.554688 1.03125 15.664062 0.296875 14.84375 -0.578125 C 14.050781 -1.492188 13.382812 -2.410156 12.84375 -3.328125 C 12.300781 -4.210938 11.847656 -5.265625 11.484375 -6.484375 C 11.117188 -7.671875 10.816406 -9.582031 10.578125 -12.21875 C 10.378906 -8.8125 9.972656 -6.3125 9.359375 -4.71875 C 8.773438 -3.132812 7.859375 -1.753906 6.609375 -0.578125 C 5.335938 0.546875 3.613281 1.578125 1.4375 2.515625 L 1.265625 2.1875 C 3.234375 1.175781 4.835938 0.0234375 6.078125 -1.265625 C 7.304688 -2.566406 8.125 -3.976562 8.53125 -5.5 C 8.9375 -6.988281 9.289062 -9.296875 9.59375 -12.421875 Z M 12.515625 -7.625 C 13.929688 -9.28125 15.210938 -11.097656 16.359375 -13.078125 C 17.390625 -12.421875 17.910156 -12.054688 17.921875 -11.984375 C 17.921875 -11.878906 17.910156 -11.804688 17.890625 -11.765625 C 17.847656 -11.710938 17.75 -11.6875 17.59375 -11.6875 C 17.457031 -11.6875 17.28125 -11.644531 17.0625 -11.5625 C 16.875 -11.476562 16.476562 -11.109375 15.875 -10.453125 C 15.257812 -9.796875 14.234375 -8.757812 12.796875 -7.34375 Z M 12.515625 -7.625 " style="stroke: none;"></path>
</svg>