<svg xmlns="http://www.w3.org/2000/svg"
  xmlns:xlink="http://www.w3.org/1999/xlink" version="1.1" baseProfile="full" viewBox="-2 -20 25 25" height="50" width="50">
  <path d="M 9.765625 -17.265625 C 11.035156 -16.804688 11.691406 -16.535156 11.734375 -16.453125 C 11.773438 -16.367188 11.757812 -16.3125 11.6875 -16.28125 C 11.644531 -16.238281 11.359375 -16.117188 10.828125 -15.921875 C 10.679688 -13.609375 10.242188 -11.9375 9.515625 -10.90625 C 8.773438 -9.882812 7.707031 -9.023438 6.3125 -8.328125 C 4.90625 -7.628906 3.320312 -7.054688 1.5625 -6.609375 L 1.390625 -7.015625 C 2.953125 -7.503906 4.375 -8.117188 5.65625 -8.859375 C 6.925781 -9.585938 7.898438 -10.421875 8.578125 -11.359375 C 9.234375 -12.265625 9.628906 -14.234375 9.765625 -17.265625 Z M 10.453125 -11.734375 L 10.578125 -12.09375 C 12.796875 -11.550781 14.546875 -11.035156 15.828125 -10.546875 C 17.097656 -10.046875 17.921875 -9.59375 18.296875 -9.1875 C 18.679688 -8.78125 18.84375 -8.410156 18.78125 -8.078125 C 18.738281 -7.753906 18.601562 -7.578125 18.375 -7.546875 C 18.144531 -7.492188 17.832031 -7.6875 17.4375 -8.125 C 17.039062 -8.519531 16.394531 -9.023438 15.5 -9.640625 C 14.601562 -10.210938 12.921875 -10.910156 10.453125 -11.734375 Z M 12.015625 -12.59375 C 13.554688 -13.738281 14.882812 -14.832031 16 -15.875 C 16.78125 -15.125 17.191406 -14.6875 17.234375 -14.5625 C 17.265625 -14.476562 17.25 -14.394531 17.1875 -14.3125 C 17.113281 -14.226562 16.921875 -14.226562 16.609375 -14.3125 C 16.328125 -14.394531 15.914062 -14.300781 15.375 -14.03125 C 14.875 -13.738281 13.835938 -13.164062 12.265625 -12.3125 Z M 6.109375 -15.46875 L 6.515625 -15.46875 C 6.453125 -14.082031 6.265625 -13.109375 5.953125 -12.546875 C 5.660156 -12.003906 5.332031 -11.648438 4.96875 -11.484375 C 4.59375 -11.304688 4.289062 -11.238281 4.0625 -11.28125 C 3.832031 -11.320312 3.679688 -11.472656 3.609375 -11.734375 C 3.554688 -11.929688 3.707031 -12.132812 4.0625 -12.34375 C 4.382812 -12.550781 4.753906 -12.835938 5.171875 -13.203125 C 5.578125 -13.585938 5.890625 -14.34375 6.109375 -15.46875 Z M 9.84375 -9.796875 C 11.113281 -9.421875 11.753906 -9.191406 11.765625 -9.109375 C 11.765625 -9.015625 11.753906 -8.945312 11.734375 -8.90625 C 11.691406 -8.84375 11.472656 -8.773438 11.078125 -8.703125 L 11.078125 -8.078125 C 11.640625 -6.066406 12.101562 -4.78125 12.46875 -4.21875 C 13.726562 -5.375 14.820312 -6.507812 15.75 -7.625 C 16.65625 -6.925781 17.109375 -6.519531 17.109375 -6.40625 C 17.117188 -6.300781 17.085938 -6.242188 17.015625 -6.234375 C 16.953125 -6.222656 16.804688 -6.207031 16.578125 -6.1875 C 16.328125 -6.207031 16.023438 -6.097656 15.671875 -5.859375 C 15.296875 -5.617188 14.3125 -4.953125 12.71875 -3.859375 C 13.207031 -3.023438 13.890625 -2.257812 14.765625 -1.5625 C 15.609375 -0.851562 16.441406 -0.328125 17.265625 0.015625 C 18.078125 0.347656 18.992188 0.582031 20.015625 0.71875 L 20.015625 1.125 C 19.546875 1.082031 19.148438 1.109375 18.828125 1.203125 C 18.492188 1.285156 18.125 1.519531 17.71875 1.90625 C 16.769531 1.4375 15.785156 0.757812 14.765625 -0.125 C 13.742188 -1.03125 12.910156 -2.015625 12.265625 -3.078125 C 11.640625 -4.097656 11.117188 -5.5625 10.703125 -7.46875 C 10.609375 -5.070312 10.1875 -3.332031 9.4375 -2.25 C 8.695312 -1.175781 7.671875 -0.242188 6.359375 0.546875 C 5.054688 1.347656 3.347656 2.003906 1.234375 2.515625 L 1.1875 2.15625 C 3.207031 1.382812 4.738281 0.648438 5.78125 -0.046875 C 6.820312 -0.742188 7.65625 -1.507812 8.28125 -2.34375 C 8.894531 -3.132812 9.304688 -4.210938 9.515625 -5.578125 C 9.722656 -6.921875 9.832031 -8.328125 9.84375 -9.796875 Z M 5.953125 -7.171875 L 6.359375 -7.171875 C 6.234375 -5.742188 6.015625 -4.722656 5.703125 -4.109375 C 5.410156 -3.515625 5.082031 -3.128906 4.71875 -2.953125 C 4.34375 -2.785156 4.039062 -2.734375 3.8125 -2.796875 C 3.582031 -2.816406 3.429688 -2.960938 3.359375 -3.234375 C 3.304688 -3.472656 3.457031 -3.691406 3.8125 -3.890625 C 4.144531 -4.097656 4.515625 -4.390625 4.921875 -4.765625 C 5.316406 -5.128906 5.660156 -5.929688 5.953125 -7.171875 Z M 5.953125 -7.171875 " style="stroke: none;"></path>
</svg>