<svg xmlns="http://www.w3.org/2000/svg"
  xmlns:xlink="http://www.w3.org/1999/xlink" version="1.1" baseProfile="full" viewBox="-2 -20 25 25" height="50" width="50">
  <path d="M 6.109375 -15.59375 L 6.484375 -15.546875 C 6.410156 -14.328125 6.257812 -13.476562 6.03125 -13 C 5.78125 -12.550781 5.519531 -12.210938 5.25 -11.984375 C 4.957031 -11.734375 4.671875 -11.59375 4.390625 -11.5625 C 4.140625 -11.550781 3.9375 -11.617188 3.78125 -11.765625 C 3.632812 -11.921875 3.601562 -12.101562 3.6875 -12.3125 C 3.769531 -12.457031 4.003906 -12.632812 4.390625 -12.84375 C 4.753906 -13.03125 5.082031 -13.300781 5.375 -13.65625 C 5.625 -13.988281 5.867188 -14.632812 6.109375 -15.59375 Z M 10.21875 -16.9375 C 11.46875 -16.625 12.109375 -16.429688 12.140625 -16.359375 C 12.179688 -16.296875 12.164062 -16.226562 12.09375 -16.15625 C 12.050781 -16.113281 11.957031 -16.070312 11.8125 -16.03125 C 11.675781 -15.976562 11.484375 -15.832031 11.234375 -15.59375 C 11.546875 -14.394531 12.050781 -13.328125 12.75 -12.390625 C 14.007812 -13.179688 15.296875 -14.097656 16.609375 -15.140625 C 17.535156 -14.503906 18.015625 -14.144531 18.046875 -14.0625 C 18.085938 -13.988281 18.070312 -13.9375 18 -13.90625 C 17.957031 -13.851562 17.835938 -13.835938 17.640625 -13.859375 C 17.429688 -13.878906 16.96875 -13.769531 16.25 -13.53125 C 15.550781 -13.289062 14.46875 -12.800781 13 -12.0625 C 13.78125 -11.238281 14.5625 -10.625 15.34375 -10.21875 C 16.101562 -9.800781 16.894531 -9.472656 17.71875 -9.234375 C 18.539062 -9.015625 19.363281 -8.90625 20.1875 -8.90625 L 20.1875 -8.484375 C 19.769531 -8.523438 19.398438 -8.488281 19.078125 -8.375 C 18.742188 -8.25 18.414062 -7.988281 18.09375 -7.59375 C 17.113281 -7.957031 16.222656 -8.394531 15.421875 -8.90625 C 14.597656 -9.351562 13.78125 -10.007812 12.96875 -10.875 C 12.144531 -11.726562 11.488281 -12.914062 11 -14.4375 C 10.707031 -12.78125 10.050781 -11.492188 9.03125 -10.578125 C 7.988281 -9.679688 6.894531 -9.023438 5.75 -8.609375 C 4.582031 -8.191406 3.160156 -7.851562 1.484375 -7.59375 L 1.4375 -7.953125 C 3.019531 -8.328125 4.382812 -8.78125 5.53125 -9.3125 C 6.644531 -9.84375 7.59375 -10.5 8.375 -11.28125 C 9.101562 -12.039062 9.578125 -12.914062 9.796875 -13.90625 C 9.992188 -14.84375 10.132812 -15.851562 10.21875 -16.9375 Z M 3.890625 -6.6875 C 3.929688 -5.4375 3.878906 -4.546875 3.734375 -4.015625 C 3.566406 -3.484375 3.320312 -3.113281 3 -2.90625 C 2.664062 -2.726562 2.378906 -2.703125 2.140625 -2.828125 C 1.890625 -2.960938 1.789062 -3.140625 1.84375 -3.359375 C 1.882812 -3.554688 2.035156 -3.734375 2.296875 -3.890625 C 2.546875 -4.054688 2.789062 -4.304688 3.03125 -4.640625 C 3.28125 -4.960938 3.429688 -5.644531 3.484375 -6.6875 Z M 5.75 -8.25 C 6.726562 -8 7.242188 -7.832031 7.296875 -7.75 C 7.359375 -7.664062 7.359375 -7.613281 7.296875 -7.59375 C 7.253906 -7.53125 7.050781 -7.421875 6.6875 -7.265625 C 6.726562 -6.035156 6.671875 -5.09375 6.515625 -4.4375 C 7.628906 -5.195312 8.578125 -6 9.359375 -6.84375 L 10.21875 -6.03125 C 10.375 -5.9375 10.414062 -5.84375 10.34375 -5.75 C 10.15625 -5.726562 9.960938 -5.695312 9.765625 -5.65625 C 9.546875 -5.644531 9.191406 -5.492188 8.703125 -5.203125 C 8.203125 -4.910156 7.460938 -4.515625 6.484375 -4.015625 L 6.40625 -3.53125 C 7.601562 -3.039062 8.394531 -2.628906 8.78125 -2.296875 C 9.144531 -1.972656 9.390625 -1.6875 9.515625 -1.4375 C 9.597656 -1.1875 9.597656 -0.941406 9.515625 -0.703125 C 9.421875 -0.453125 9.242188 -0.328125 8.984375 -0.328125 C 8.734375 -0.328125 8.515625 -0.5625 8.328125 -1.03125 C 8.117188 -1.488281 7.875 -1.867188 7.59375 -2.171875 C 7.332031 -2.460938 6.894531 -2.789062 6.28125 -3.15625 C 5.945312 -2.007812 5.453125 -1.09375 4.796875 -0.40625 C 4.128906 0.257812 2.832031 1.03125 0.90625 1.90625 L 0.78125 1.625 C 2.632812 0.582031 3.878906 -0.410156 4.515625 -1.359375 C 5.128906 -2.296875 5.5 -3.347656 5.625 -4.515625 C 5.738281 -5.648438 5.78125 -6.894531 5.75 -8.25 Z M 19.078125 -5.78125 C 19.191406 -5.644531 19.175781 -5.535156 19.03125 -5.453125 C 18.632812 -5.453125 18.238281 -5.332031 17.84375 -5.09375 C 17.4375 -4.851562 16.5625 -4.25 15.21875 -3.28125 C 15.738281 -2.09375 16.21875 -1.234375 16.65625 -0.703125 C 17.09375 -0.179688 17.613281 0.234375 18.21875 0.546875 C 18.8125 0.828125 19.476562 1.046875 20.21875 1.203125 L 20.21875 1.578125 C 19.726562 1.535156 19.316406 1.578125 18.984375 1.703125 C 18.660156 1.828125 18.414062 1.988281 18.25 2.1875 C 17.632812 1.851562 17.046875 1.335938 16.484375 0.640625 C 15.910156 0.00390625 15.445312 -0.726562 15.09375 -1.5625 C 14.726562 -2.351562 14.382812 -3.640625 14.0625 -5.421875 C 13.882812 -3.191406 13.445312 -1.617188 12.75 -0.703125 C 12.09375 0.171875 11.316406 0.820312 10.421875 1.25 C 9.546875 1.65625 8.492188 2.050781 7.265625 2.4375 L 7.140625 2.109375 C 8.398438 1.617188 9.410156 1.128906 10.171875 0.640625 C 10.910156 0.203125 11.523438 -0.40625 12.015625 -1.1875 C 12.460938 -1.925781 12.789062 -2.953125 13 -4.265625 C 13.164062 -5.566406 13.234375 -6.972656 13.203125 -8.484375 L 14.84375 -7.921875 C 14.925781 -7.816406 14.96875 -7.75 14.96875 -7.71875 C 14.96875 -7.695312 14.765625 -7.585938 14.359375 -7.390625 L 14.359375 -6.6875 C 14.597656 -5.625 14.828125 -4.640625 15.046875 -3.734375 C 16.285156 -4.785156 17.234375 -5.785156 17.890625 -6.734375 Z M 11.5625 -6.765625 C 11.59375 -5.785156 11.566406 -5.046875 11.484375 -4.546875 C 11.410156 -4.066406 11.257812 -3.710938 11.03125 -3.484375 C 10.789062 -3.242188 10.546875 -3.125 10.296875 -3.125 C 10.066406 -3.09375 9.875 -3.171875 9.71875 -3.359375 C 9.582031 -3.554688 9.597656 -3.734375 9.765625 -3.890625 C 9.890625 -4.054688 10.09375 -4.265625 10.375 -4.515625 C 10.625 -4.734375 10.789062 -4.953125 10.875 -5.171875 C 10.925781 -5.367188 11.019531 -5.898438 11.15625 -6.765625 Z M 11.5625 -6.765625 " style="stroke: none;"></path>
</svg>