<svg xmlns="http://www.w3.org/2000/svg"
  xmlns:xlink="http://www.w3.org/1999/xlink" version="1.1" baseProfile="full" viewBox="-2 -20 25 25" height="50" width="50">
  <path d="M 1.390625 -7.59375 C 2.296875 -8.113281 3.035156 -8.671875 3.609375 -9.265625 C 4.179688 -9.835938 4.632812 -10.492188 4.96875 -11.234375 C 5.28125 -11.953125 5.457031 -13.238281 5.5 -15.09375 L 5.5 -17.140625 C 6.5625 -16.816406 7.132812 -16.613281 7.21875 -16.53125 C 7.269531 -16.445312 7.242188 -16.363281 7.140625 -16.28125 C 7.015625 -16.226562 6.796875 -16.117188 6.484375 -15.953125 C 6.503906 -14.835938 6.4375 -13.632812 6.28125 -12.34375 C 7.332031 -13.125 8.328125 -14.023438 9.265625 -15.046875 C 10.140625 -14.347656 10.566406 -13.941406 10.546875 -13.828125 C 10.523438 -13.722656 10.46875 -13.664062 10.375 -13.65625 C 10.289062 -13.65625 10.128906 -13.65625 9.890625 -13.65625 C 9.679688 -13.65625 9.335938 -13.535156 8.859375 -13.296875 C 8.410156 -13.046875 7.535156 -12.550781 6.234375 -11.8125 L 6.109375 -11.5625 C 6.960938 -11.300781 7.6875 -11.03125 8.28125 -10.75 C 8.894531 -10.5 9.347656 -10.210938 9.640625 -9.890625 C 9.941406 -9.554688 10.078125 -9.226562 10.046875 -8.90625 C 10.035156 -8.582031 9.898438 -8.390625 9.640625 -8.328125 C 9.378906 -8.273438 9.160156 -8.382812 8.984375 -8.65625 C 8.816406 -8.90625 8.613281 -9.191406 8.375 -9.515625 C 8.132812 -9.847656 7.859375 -10.125 7.546875 -10.34375 C 7.222656 -10.539062 6.691406 -10.828125 5.953125 -11.203125 C 5.648438 -10.328125 5.128906 -9.5625 4.390625 -8.90625 C 3.640625 -8.257812 2.671875 -7.695312 1.484375 -7.21875 Z M 3.328125 -14.8125 L 3.734375 -14.8125 C 3.773438 -13.65625 3.71875 -12.832031 3.5625 -12.34375 C 3.414062 -11.863281 3.226562 -11.507812 3 -11.28125 C 2.757812 -11.0625 2.484375 -10.953125 2.171875 -10.953125 C 1.867188 -10.921875 1.675781 -11.046875 1.59375 -11.328125 C 1.5 -11.566406 1.640625 -11.796875 2.015625 -12.015625 C 2.335938 -12.222656 2.625 -12.550781 2.875 -13 C 3.113281 -13.414062 3.265625 -14.019531 3.328125 -14.8125 Z M 0.9375 1.90625 C 2.40625 0.925781 3.40625 0.0546875 3.9375 -0.703125 C 4.414062 -1.421875 4.800781 -2.171875 5.09375 -2.953125 C 5.363281 -3.722656 5.550781 -5.101562 5.65625 -7.09375 L 5.65625 -8.734375 C 6.8125 -8.390625 7.390625 -8.160156 7.390625 -8.046875 C 7.398438 -7.921875 7.367188 -7.835938 7.296875 -7.796875 C 7.210938 -7.773438 7.007812 -7.664062 6.6875 -7.46875 C 6.726562 -6.914062 6.632812 -5.863281 6.40625 -4.3125 C 7.519531 -5.164062 8.429688 -6.023438 9.140625 -6.890625 C 10.015625 -6.222656 10.441406 -5.84375 10.421875 -5.75 C 10.398438 -5.644531 10.34375 -5.585938 10.25 -5.578125 C 10.164062 -5.578125 10.003906 -5.578125 9.765625 -5.578125 C 9.554688 -5.578125 9.210938 -5.453125 8.734375 -5.203125 C 8.285156 -4.972656 7.46875 -4.5 6.28125 -3.78125 L 6.1875 -3.359375 C 6.875 -3.160156 7.601562 -2.820312 8.375 -2.34375 C 9.09375 -1.882812 9.597656 -1.472656 9.890625 -1.109375 C 10.128906 -0.765625 10.238281 -0.421875 10.21875 -0.078125 C 10.175781 0.222656 10.007812 0.421875 9.71875 0.515625 C 9.457031 0.554688 9.238281 0.429688 9.0625 0.140625 C 8.894531 -0.128906 8.691406 -0.460938 8.453125 -0.859375 C 8.210938 -1.234375 7.894531 -1.601562 7.5 -1.96875 C 7.09375 -2.332031 6.628906 -2.660156 6.109375 -2.953125 C 5.785156 -1.984375 5.296875 -1.09375 4.640625 -0.28125 C 3.984375 0.476562 2.789062 1.316406 1.0625 2.234375 Z M 3.40625 -6.8125 L 3.8125 -6.8125 C 3.800781 -5.476562 3.707031 -4.5625 3.53125 -4.0625 C 3.363281 -3.550781 3.144531 -3.164062 2.875 -2.90625 C 2.625 -2.664062 2.335938 -2.546875 2.015625 -2.546875 C 1.722656 -2.515625 1.515625 -2.632812 1.390625 -2.90625 C 1.296875 -3.15625 1.4375 -3.390625 1.8125 -3.609375 C 2.1875 -3.828125 2.523438 -4.171875 2.828125 -4.640625 C 3.097656 -5.078125 3.289062 -5.800781 3.40625 -6.8125 Z M 19.9375 -6.109375 C 20.113281 -5.941406 20.125 -5.820312 19.96875 -5.75 C 19.601562 -5.78125 19.195312 -5.695312 18.75 -5.5 C 18.28125 -5.332031 17.347656 -4.796875 15.953125 -3.890625 C 16.429688 -2.617188 16.894531 -1.707031 17.34375 -1.15625 C 17.757812 -0.601562 18.210938 -0.15625 18.703125 0.1875 C 19.148438 0.550781 19.753906 0.796875 20.515625 0.921875 L 20.515625 1.296875 C 19.859375 1.253906 19.40625 1.296875 19.15625 1.421875 C 18.894531 1.492188 18.675781 1.65625 18.5 1.90625 C 18.09375 1.582031 17.640625 1.050781 17.140625 0.3125 C 16.660156 -0.375 16.222656 -1.21875 15.828125 -2.21875 C 15.453125 -3.175781 15.140625 -4.664062 14.890625 -6.6875 L 14.8125 -6.640625 C 14.707031 -4.429688 14.390625 -2.78125 13.859375 -1.6875 C 13.328125 -0.613281 12.578125 0.269531 11.609375 0.96875 C 10.640625 1.601562 9.585938 2.148438 8.453125 2.609375 L 8.328125 2.28125 C 9.523438 1.59375 10.484375 0.9375 11.203125 0.3125 C 11.898438 -0.289062 12.457031 -1 12.875 -1.8125 C 13.257812 -2.582031 13.519531 -3.550781 13.65625 -4.71875 C 13.789062 -5.84375 13.890625 -7.289062 13.953125 -9.0625 L 15.703125 -8.40625 C 15.847656 -8.320312 15.890625 -8.238281 15.828125 -8.15625 C 15.828125 -8.144531 15.609375 -8.035156 15.171875 -7.828125 C 15.378906 -6.597656 15.585938 -5.453125 15.796875 -4.390625 C 17.066406 -5.316406 18.078125 -6.191406 18.828125 -7.015625 Z M 10.375 -7.828125 C 11.101562 -8.222656 11.816406 -8.769531 12.515625 -9.46875 C 13.171875 -10.125 13.609375 -10.820312 13.828125 -11.5625 C 14.046875 -12.28125 14.179688 -13.078125 14.234375 -13.953125 C 14.316406 -14.804688 14.34375 -15.910156 14.3125 -17.265625 C 15.445312 -16.859375 16.035156 -16.613281 16.078125 -16.53125 C 16.117188 -16.4375 16.101562 -16.367188 16.03125 -16.328125 C 15.957031 -16.304688 15.738281 -16.195312 15.375 -16 C 15.414062 -15.175781 15.363281 -14.3125 15.21875 -13.40625 C 16.082031 -13.957031 16.679688 -14.34375 17.015625 -14.5625 C 17.304688 -14.769531 17.742188 -15.097656 18.328125 -15.546875 L 19.5625 -14.640625 C 19.65625 -14.515625 19.628906 -14.429688 19.484375 -14.390625 C 19.316406 -14.378906 19.113281 -14.351562 18.875 -14.3125 C 18.625 -14.269531 18.296875 -14.1875 17.890625 -14.0625 C 17.515625 -13.945312 16.609375 -13.523438 15.171875 -12.796875 L 14.96875 -11.890625 C 15.65625 -11.648438 16.328125 -11.390625 16.984375 -11.109375 C 17.597656 -10.847656 18.128906 -10.535156 18.578125 -10.171875 C 19.015625 -9.847656 19.25 -9.476562 19.28125 -9.0625 C 19.320312 -8.695312 19.195312 -8.476562 18.90625 -8.40625 C 18.644531 -8.351562 18.425781 -8.460938 18.25 -8.734375 C 18.082031 -8.960938 17.835938 -9.265625 17.515625 -9.640625 C 17.210938 -9.960938 16.859375 -10.289062 16.453125 -10.625 C 16.023438 -10.90625 15.476562 -11.191406 14.8125 -11.484375 C 14.46875 -10.484375 13.90625 -9.675781 13.125 -9.0625 C 12.382812 -8.476562 11.523438 -7.972656 10.546875 -7.546875 Z M 12.3125 -6.5625 C 12.34375 -5.613281 12.300781 -4.863281 12.1875 -4.3125 C 12.082031 -3.769531 11.890625 -3.359375 11.609375 -3.078125 C 11.347656 -2.816406 11.070312 -2.664062 10.78125 -2.625 C 10.5 -2.613281 10.296875 -2.707031 10.171875 -2.90625 C 10.078125 -3.113281 10.101562 -3.320312 10.25 -3.53125 C 10.414062 -3.675781 10.609375 -3.851562 10.828125 -4.0625 C 11.035156 -4.207031 11.238281 -4.46875 11.4375 -4.84375 C 11.632812 -5.207031 11.773438 -5.78125 11.859375 -6.5625 Z M 12.3125 -15.296875 C 12.34375 -14.253906 12.328125 -13.488281 12.265625 -13 C 12.191406 -12.507812 12.039062 -12.128906 11.8125 -11.859375 C 11.601562 -11.597656 11.34375 -11.445312 11.03125 -11.40625 C 10.726562 -11.382812 10.535156 -11.453125 10.453125 -11.609375 C 10.359375 -11.773438 10.347656 -11.9375 10.421875 -12.09375 C 10.460938 -12.21875 10.625 -12.410156 10.90625 -12.671875 C 11.15625 -12.921875 11.363281 -13.207031 11.53125 -13.53125 C 11.644531 -13.832031 11.765625 -14.421875 11.890625 -15.296875 Z M 12.3125 -15.296875 " style="stroke: none;"></path>
</svg>