<svg xmlns="http://www.w3.org/2000/svg"
  xmlns:xlink="http://www.w3.org/1999/xlink" version="1.1" baseProfile="full" viewBox="-2 -20 25 25" height="50" width="50">
  <path d="M 3.328125 -15.953125 L 14.8125 -15.953125 L 15.59375 -16.78125 L 16.8125 -15.75 C 16.894531 -15.707031 16.9375 -15.625 16.9375 -15.5 C 16.9375 -15.414062 16.632812 -15.210938 16.03125 -14.890625 L 16.03125 -12.3125 L 16.15625 -10.453125 C 16.144531 -10.234375 15.992188 -10.046875 15.703125 -9.890625 C 15.460938 -9.765625 15.21875 -9.679688 14.96875 -9.640625 L 14.96875 -10.875 L 5.625 -10.875 L 4.796875 -6.9375 L 15.75 -6.9375 L 16.609375 -7.75 L 17.71875 -6.640625 C 17.925781 -6.460938 17.96875 -6.328125 17.84375 -6.234375 C 17.71875 -6.148438 17.472656 -6.023438 17.109375 -5.859375 C 16.679688 -3.429688 16.285156 -1.765625 15.921875 -0.859375 C 15.546875 0.0234375 15.09375 0.660156 14.5625 1.046875 C 14.050781 1.410156 13.410156 1.722656 12.640625 1.984375 C 12.492188 1.484375 12.257812 1.128906 11.9375 0.921875 C 11.601562 0.703125 10.78125 0.394531 9.46875 0 L 9.5625 -0.40625 C 11.570312 0.15625 12.882812 0.363281 13.5 0.21875 C 14.070312 0.0703125 14.550781 -0.421875 14.9375 -1.265625 C 15.289062 -2.097656 15.671875 -3.796875 16.078125 -6.359375 L 4.96875 -6.359375 L 4.1875 -5.75 L 3.078125 -6.8125 L 3.859375 -7.296875 L 4.84375 -12.421875 L 5.78125 -11.4375 L 14.96875 -11.4375 L 14.96875 -15.375 L 4.796875 -15.375 C 4.492188 -15.363281 4.179688 -15.296875 3.859375 -15.171875 Z M 3.328125 -15.953125 " style="stroke: none;"></path>
</svg>