<svg xmlns="http://www.w3.org/2000/svg"
  xmlns:xlink="http://www.w3.org/1999/xlink" version="1.1" baseProfile="full" viewBox="-2 -20 25 25" height="50" width="50">
  <path d="M 17.796875 -12.796875 L 19.28125 -11.53125 C 19.363281 -11.46875 19.40625 -11.398438 19.40625 -11.328125 C 19.457031 -11.179688 19.347656 -11.109375 19.078125 -11.109375 L 9.3125 -10.703125 C 9.5625 -9.085938 9.804688 -7.789062 10.046875 -6.8125 C 10.296875 -5.84375 10.648438 -4.910156 11.109375 -4.015625 C 11.941406 -4.828125 12.65625 -5.625 13.25 -6.40625 C 13.832031 -7.164062 14.460938 -8.160156 15.140625 -9.390625 C 16.203125 -8.765625 16.734375 -8.410156 16.734375 -8.328125 C 16.742188 -8.234375 16.71875 -8.164062 16.65625 -8.125 C 16.570312 -8.082031 16.445312 -8.039062 16.28125 -8 C 16.113281 -7.945312 15.953125 -7.878906 15.796875 -7.796875 C 15.628906 -7.703125 15.367188 -7.425781 15.015625 -6.96875 C 14.671875 -6.519531 14.234375 -5.972656 13.703125 -5.328125 C 13.171875 -4.710938 12.472656 -4.003906 11.609375 -3.203125 C 12.097656 -2.460938 12.695312 -1.804688 13.40625 -1.234375 C 14.09375 -0.679688 14.804688 -0.234375 15.546875 0.109375 C 16.242188 0.441406 16.773438 0.660156 17.140625 0.765625 C 17.492188 0.859375 17.753906 0.894531 17.921875 0.875 C 18.046875 0.875 18.128906 0.628906 18.171875 0.140625 C 18.203125 -0.296875 18.335938 -1.367188 18.578125 -3.078125 L 18.984375 -3.03125 C 18.929688 -1.875 18.921875 -1.03125 18.953125 -0.5 C 18.960938 -0.0195312 19.015625 0.425781 19.109375 0.84375 C 19.191406 1.207031 19.34375 1.476562 19.5625 1.65625 C 19.78125 1.789062 19.878906 1.914062 19.859375 2.03125 C 19.816406 2.15625 19.734375 2.238281 19.609375 2.28125 C 19.484375 2.320312 19.195312 2.320312 18.75 2.28125 C 18.3125 2.238281 17.789062 2.113281 17.1875 1.90625 C 16.570312 1.738281 15.875 1.453125 15.09375 1.046875 C 14.300781 0.648438 13.550781 0.191406 12.84375 -0.328125 C 12.125 -0.859375 11.453125 -1.597656 10.828125 -2.546875 C 9.128906 -1.421875 7.789062 -0.65625 6.8125 -0.25 C 5.863281 0.144531 5 0.484375 4.21875 0.765625 C 3.488281 0.992188 2.503906 1.289062 1.265625 1.65625 L 1.15625 1.328125 C 2.445312 0.878906 3.5 0.472656 4.3125 0.109375 C 5.082031 -0.191406 5.941406 -0.597656 6.890625 -1.109375 C 7.796875 -1.585938 8.945312 -2.335938 10.34375 -3.359375 C 9.789062 -4.398438 9.363281 -5.441406 9.0625 -6.484375 C 8.78125 -7.503906 8.535156 -8.882812 8.328125 -10.625 L 2.625 -10.34375 C 2.332031 -10.257812 2.085938 -10.175781 1.890625 -10.09375 L 1.265625 -10.875 L 8.203125 -11.15625 L 7.953125 -17.0625 L 9.59375 -16.453125 C 9.707031 -16.390625 9.765625 -16.332031 9.765625 -16.28125 C 9.765625 -16.1875 9.640625 -16.09375 9.390625 -16 L 9.109375 -15.75 L 9.109375 -14.640625 L 9.234375 -11.234375 L 17.015625 -11.53125 Z M 11.734375 -16.078125 C 12.828125 -15.816406 13.660156 -15.546875 14.234375 -15.265625 C 14.753906 -15.003906 15.097656 -14.726562 15.265625 -14.4375 C 15.421875 -14.144531 15.445312 -13.859375 15.34375 -13.578125 C 15.226562 -13.316406 15.035156 -13.179688 14.765625 -13.171875 C 14.515625 -13.171875 14.351562 -13.289062 14.28125 -13.53125 C 14.175781 -13.769531 13.984375 -14.070312 13.703125 -14.4375 C 13.410156 -14.789062 12.710938 -15.226562 11.609375 -15.75 Z M 11.734375 -16.078125 " style="stroke: none;"></path>
</svg>