<svg xmlns="http://www.w3.org/2000/svg"
  xmlns:xlink="http://www.w3.org/1999/xlink" version="1.1" baseProfile="full" viewBox="-2 -20 25 25" height="50" width="50">
  <path d="M 17.796875 -9.84375 L 18.546875 -10.578125 C 19.515625 -9.785156 20.03125 -9.347656 20.09375 -9.265625 C 20.132812 -9.179688 20.125 -9.128906 20.0625 -9.109375 C 19.976562 -9.054688 19.757812 -8.988281 19.40625 -8.90625 C 19.070312 -8.820312 18.703125 -8.613281 18.296875 -8.28125 C 17.867188 -7.976562 17.0625 -7.3125 15.875 -6.28125 L 15.546875 -6.484375 L 17.890625 -9.265625 L 12.34375 -9.265625 L 12.34375 -0.171875 C 12.332031 0.429688 12.179688 0.90625 11.890625 1.25 C 11.609375 1.582031 11.144531 1.816406 10.5 1.953125 C 10.445312 1.617188 10.296875 1.332031 10.046875 1.09375 C 9.804688 0.882812 9.066406 0.59375 7.828125 0.21875 L 7.921875 -0.171875 C 9.390625 0.128906 10.316406 0.257812 10.703125 0.21875 C 11.078125 0.195312 11.242188 -0.109375 11.203125 -0.703125 L 11.203125 -9.265625 L 11.03125 -9.265625 C 10.03125 -7.671875 9.101562 -6.359375 8.25 -5.328125 C 7.375 -4.296875 6.332031 -3.285156 5.125 -2.296875 C 3.9375 -1.285156 2.570312 -0.375 1.03125 0.4375 L 0.859375 0.109375 C 2.296875 -0.804688 3.523438 -1.742188 4.546875 -2.703125 C 5.535156 -3.640625 6.441406 -4.597656 7.265625 -5.578125 C 8.035156 -6.566406 8.878906 -7.796875 9.796875 -9.265625 L 3.078125 -9.265625 C 2.734375 -9.265625 2.378906 -9.222656 2.015625 -9.140625 L 1.5625 -9.84375 Z M 16.484375 -16.8125 C 17.429688 -15.957031 17.925781 -15.492188 17.96875 -15.421875 C 17.96875 -15.335938 17.953125 -15.285156 17.921875 -15.265625 C 17.867188 -15.242188 17.757812 -15.226562 17.59375 -15.21875 C 17.457031 -15.207031 17.265625 -15.140625 17.015625 -15.015625 C 16.773438 -14.878906 16.476562 -14.726562 16.125 -14.5625 C 15.78125 -14.394531 14.519531 -13.367188 12.34375 -11.484375 C 12.59375 -11.078125 12.617188 -10.75 12.421875 -10.5 C 12.265625 -10.25 12.046875 -10.15625 11.765625 -10.21875 C 11.523438 -10.257812 11.320312 -10.421875 11.15625 -10.703125 C 10.976562 -10.972656 10.664062 -11.328125 10.21875 -11.765625 C 9.757812 -12.203125 8.851562 -12.832031 7.5 -13.65625 L 7.671875 -13.953125 C 8.984375 -13.472656 9.925781 -13.070312 10.5 -12.75 C 11.0625 -12.4375 11.566406 -12.125 12.015625 -11.8125 L 15.671875 -15.5 L 5.125 -15.5 C 4.90625 -15.5 4.644531 -15.445312 4.34375 -15.34375 L 3.859375 -16.03125 L 15.703125 -16.03125 Z M 16.484375 -16.8125 " style="stroke: none;"></path>
</svg>