<svg xmlns="http://www.w3.org/2000/svg"
  xmlns:xlink="http://www.w3.org/1999/xlink" version="1.1" baseProfile="full" viewBox="-2 -20 25 25" height="50" width="50">
  <path d="M 4.015625 -10.015625 L 9.390625 -10.015625 L 10.125 -11.03125 L 11.328125 -9.84375 C 11.347656 -9.832031 11.398438 -9.78125 11.484375 -9.6875 C 11.492188 -9.519531 11.425781 -9.4375 11.28125 -9.4375 L 5.75 -9.4375 C 5.457031 -9.4375 4.988281 -9.394531 4.34375 -9.3125 Z M 10.90625 -8.53125 L 12.421875 -7.921875 C 12.535156 -7.878906 12.609375 -7.796875 12.640625 -7.671875 C 12.660156 -7.578125 12.585938 -7.507812 12.421875 -7.46875 C 12.015625 -7.34375 11.6875 -7.039062 11.4375 -6.5625 C 11.195312 -6.070312 10.832031 -5.238281 10.34375 -4.0625 C 9.832031 -2.914062 9.3125 -1.765625 8.78125 -0.609375 L 13.578125 -1.265625 L 13.65625 -0.859375 C 11.769531 -0.492188 9.925781 -0.160156 8.125 0.140625 C 6.320312 0.441406 5.035156 0.703125 4.265625 0.921875 C 3.484375 1.109375 2.9375 1.328125 2.625 1.578125 L 1.765625 0.265625 L 8.203125 -0.53125 C 8.816406 -2.175781 9.296875 -3.488281 9.640625 -4.46875 C 9.953125 -5.457031 10.375 -6.8125 10.90625 -8.53125 Z M 14.5625 -14.15625 L 16.28125 -13.453125 C 16.363281 -13.421875 16.40625 -13.351562 16.40625 -13.25 C 16.40625 -13.21875 16.144531 -13.066406 15.625 -12.796875 L 15.625 -5.578125 L 15.703125 -3.734375 C 15.660156 -3.515625 15.539062 -3.320312 15.34375 -3.15625 C 15.132812 -2.988281 14.847656 -2.894531 14.484375 -2.875 L 14.5625 -5.703125 Z M 18.125 -16.984375 L 19.859375 -16.28125 C 19.929688 -16.195312 19.96875 -16.144531 19.96875 -16.125 C 19.96875 -16.039062 19.679688 -15.863281 19.109375 -15.59375 L 19.109375 0.515625 C 19.148438 1.035156 19.03125 1.457031 18.75 1.78125 C 18.46875 2.09375 18.070312 2.328125 17.5625 2.484375 C 17.394531 1.992188 17.101562 1.648438 16.6875 1.453125 C 16.28125 1.265625 15.65625 1.035156 14.8125 0.765625 L 14.890625 0.390625 C 15.847656 0.597656 16.519531 0.75 16.90625 0.84375 C 17.269531 0.925781 17.554688 0.925781 17.765625 0.84375 C 18.003906 0.75 18.125 0.570312 18.125 0.3125 Z M 3.40625 -7.828125 C 4.332031 -6.472656 4.921875 -5.476562 5.171875 -4.84375 C 5.390625 -4.226562 5.484375 -3.691406 5.453125 -3.234375 C 5.441406 -2.816406 5.332031 -2.546875 5.125 -2.421875 C 4.945312 -2.285156 4.753906 -2.257812 4.546875 -2.34375 C 4.367188 -2.4375 4.273438 -2.773438 4.265625 -3.359375 C 4.273438 -3.929688 4.207031 -4.507812 4.0625 -5.09375 C 3.90625 -5.644531 3.59375 -6.519531 3.125 -7.71875 Z M 6.5625 -8.375 C 7.382812 -7.257812 7.90625 -6.394531 8.125 -5.78125 C 8.34375 -5.207031 8.4375 -4.703125 8.40625 -4.265625 C 8.394531 -3.835938 8.300781 -3.566406 8.125 -3.453125 C 7.945312 -3.304688 7.753906 -3.273438 7.546875 -3.359375 C 7.367188 -3.453125 7.273438 -3.796875 7.265625 -4.390625 C 7.273438 -4.953125 7.207031 -5.515625 7.0625 -6.078125 C 6.894531 -6.628906 6.632812 -7.351562 6.28125 -8.25 Z M 7.265625 -17.234375 C 8.242188 -16.765625 8.734375 -16.503906 8.734375 -16.453125 C 8.734375 -16.390625 8.734375 -16.332031 8.734375 -16.28125 C 8.734375 -16.257812 8.613281 -16.191406 8.375 -16.078125 C 8.132812 -15.972656 7.941406 -15.820312 7.796875 -15.625 C 9.335938 -14.875 10.550781 -14.191406 11.4375 -13.578125 C 12.300781 -12.972656 12.796875 -12.453125 12.921875 -12.015625 C 13.003906 -11.566406 12.960938 -11.265625 12.796875 -11.109375 C 12.628906 -10.972656 12.453125 -10.921875 12.265625 -10.953125 C 12.046875 -10.984375 11.8125 -11.242188 11.5625 -11.734375 C 11.300781 -12.222656 10.835938 -12.753906 10.171875 -13.328125 C 9.515625 -13.921875 8.640625 -14.59375 7.546875 -15.34375 C 6.597656 -13.769531 5.679688 -12.429688 4.796875 -11.328125 C 3.898438 -10.210938 2.78125 -9.046875 1.4375 -7.828125 L 1.1875 -8.078125 C 2.613281 -9.679688 3.816406 -11.226562 4.796875 -12.71875 C 5.785156 -14.175781 6.609375 -15.679688 7.265625 -17.234375 Z M 7.265625 -17.234375 " style="stroke: none;"></path>
</svg>