<svg xmlns="http://www.w3.org/2000/svg"
  xmlns:xlink="http://www.w3.org/1999/xlink" version="1.1" baseProfile="full" viewBox="-2 -20 25 25" height="50" width="50">
  <path d="M 12.78125 -5.6875 L 13.140625 -5.4375 C 12.347656 -3.664062 10.929688 -1.421875 8.890625 1.296875 L 8.96875 1.75 C 8.976562 1.84375 8.984375 1.921875 8.984375 1.984375 C 8.984375 2.171875 8.921875 2.265625 8.796875 2.265625 C 8.660156 2.265625 8.445312 2.082031 8.15625 1.71875 L 7.453125 0.828125 C 9.078125 -0.554688 10.851562 -2.726562 12.78125 -5.6875 Z M 8.421875 -14.125 C 11.128906 -13.09375 12.484375 -12.101562 12.484375 -11.15625 C 12.484375 -10.757812 12.304688 -10.5625 11.953125 -10.5625 C 11.785156 -10.5625 11.632812 -10.625 11.5 -10.75 C 11.394531 -10.851562 11.195312 -11.132812 10.90625 -11.59375 C 10.476562 -12.238281 9.597656 -12.960938 8.265625 -13.765625 Z M 8.421875 -14.125 " style="stroke: none;"></path>
</svg>