<svg xmlns="http://www.w3.org/2000/svg"
  xmlns:xlink="http://www.w3.org/1999/xlink" version="1.1" baseProfile="full" viewBox="-2 -20 25 25" height="50" width="50">
  <path d="M 5.234375 -4.625 C 4.816406 -4.625 4.582031 -4.894531 4.53125 -5.4375 C 4.425781 -6.488281 4.160156 -7.597656 3.734375 -8.765625 C 3.347656 -9.796875 2.898438 -10.703125 2.390625 -11.484375 L 2.796875 -11.828125 C 3.785156 -10.910156 4.585938 -9.832031 5.203125 -8.59375 C 5.765625 -7.488281 6.046875 -6.488281 6.046875 -5.59375 C 6.046875 -4.945312 5.773438 -4.625 5.234375 -4.625 Z M 10.265625 -5.453125 C 9.828125 -5.453125 9.59375 -5.769531 9.5625 -6.40625 C 9.519531 -8.664062 8.992188 -10.851562 7.984375 -12.96875 L 8.421875 -13.25 C 10.222656 -10.988281 11.125 -8.722656 11.125 -6.453125 C 11.125 -5.785156 10.835938 -5.453125 10.265625 -5.453125 Z M 14.09375 -3.828125 L 13.5625 -4.03125 C 14.582031 -6.820312 15.414062 -9.804688 16.0625 -12.984375 C 17.53125 -12.410156 18.265625 -11.945312 18.265625 -11.59375 C 18.265625 -11.332031 17.925781 -11.203125 17.25 -11.203125 C 16.238281 -8.265625 15.1875 -5.804688 14.09375 -3.828125 Z M 14.09375 -3.828125 " style="stroke: none;"></path>
</svg>