<svg data-v-f2e577de=""
  xmlns="http://www.w3.org/2000/svg"
  xmlns:xlink="http://www.w3.org/1999/xlink" version="1.1" baseProfile="full" viewBox="0 0 200 200" width="50" height="50">
  <path data-v-f2e577de="" d="M 57.4,18.7 L 54.4,26.9 51.1,35.1 47.6,43.1 43.8,51 39.7,58.8 35.3,66.5 30.7,74 25.8,81.4 20.4,88.5 14.7,95.5 13.2,94.4 17.2,86.5 21.2,78.6 25,70.8 28.6,63 32.1,55.1 35.3,47.2 38.3,39.3 41.1,31.3 43.6,23.2 45.9,15.1" fill="black"></path>
  <path data-v-f2e577de="" d="M 45.6,16.1 L 57.4,18.7 46.4,13.6" fill="black"></path>
  <path data-v-f2e577de="" d="M 57.4,18.7 L 59.7,21.5 54,22.9" fill="black"></path>
  <path data-v-f2e577de="" d="M 52.3,27.6 L 56.5,29.3 60.6,30.9 64.4,32.7 68,34.8 71.3,37 74.3,39.4 77.2,41.9 79.8,44.7 82.1,47.6 84.1,50.7 73.2,55.8 72.3,53.2 71.1,50.7 69.7,48.1 68,45.4 65.9,42.8 63.6,40.1 61,37.4 58.1,34.7 55,31.8 51.4,29.2" fill="black"></path>
  <path data-v-f2e577de="" d="M 84.1,50.7 L 84.3,55.2 81.2,58.7 76.7,58.8 73.2,55.8" fill="black"></path>
  <path data-v-f2e577de="" d="M 33,72 L 79,72 79,76 33,76" fill="black"></path>
  <path data-v-f2e577de="" d="M 79,72 L 59,74 69,63" fill="black"></path>
  <path data-v-f2e577de="" d="M 19,105 L 84,105 84,109 19,109" fill="black"></path>
  <path data-v-f2e577de="" d="M 84,105 L 60,107 72,95" fill="black"></path>
  <path data-v-f2e577de="" d="M 57,72 L 57,172 45,172 45,72" fill="black"></path>
  <path data-v-f2e577de="" d="M 21.3,124.1 L 24.1,126.7 27,129.3 29.5,132.1 31.8,135.1 33.9,138.3 35.7,141.7 37.3,145.2 38.7,148.8 39.8,152.5 40.6,156.4 28.7,157.5 28.7,154.3 28.5,151 28.1,147.8 27.5,144.6 26.7,141.5 25.8,138.3 24.6,135 23.3,131.8 21.8,128.5 19.9,125.3" fill="black"></path>
  <path data-v-f2e577de="" d="M 40.6,156.4 L 39.2,160.7 35.2,162.9 30.9,161.5 28.7,157.5" fill="black"></path>
  <path data-v-f2e577de="" d="M 80.4,125.6 L 79,128.8 77.6,132.1 76,135.3 74.3,138.5 72.5,141.7 70.6,144.9 68.6,148 66.4,151.2 64,154.2 61.7,157.4 60.2,156.5 61.4,152.9 62.4,149.2 63.4,145.6 64.3,142.1 65.3,138.7 66.1,135.3 66.9,132 67.7,128.7 68.3,125.4 68.9,122.2" fill="black"></path>
  <path data-v-f2e577de="" d="M 68.6,123.2 L 80.4,125.6 69.4,120.6" fill="black"></path>
  <path data-v-f2e577de="" d="M 80.4,125.6 L 82.7,128.4 77.1,129.8" fill="black"></path>
  <path data-v-f2e577de="" d="M 16.3,177.9 L 22.8,176.4 29.2,174.9 35.7,173.3 42.1,171.7 48.6,170.1 55.1,168.4 61.7,166.7 68.3,165.1 74.9,163.5 81.6,162.1 82.3,163.8 76.2,167.1 70,170.1 63.8,173 57.5,175.6 51.2,178.2 44.9,180.6 38.6,183 32.2,185.2 25.9,187.4 19.5,189.5" fill="black"></path>
  <path data-v-f2e577de="" d="M 19.5,189.5 L 16.3,177.9 14.4,178.4" fill="black"></path>
  <path data-v-f2e577de="" d="M 19.5,189.5 L 22.2,191.8 24.5,185" fill="black"></path>
</svg>