<svg data-v-f2e577de=""
  xmlns="http://www.w3.org/2000/svg"
  xmlns:xlink="http://www.w3.org/1999/xlink" version="1.1" baseProfile="full" viewBox="0 0 200 200" width="50" height="50">
  <path data-v-f2e577de="" d="M 43.7,176.1 L 43.5,177.7 43.4,179.6 42.7,181.6 41.5,183.5 39.8,185.3 37.8,187.1 35.4,188.7 32.7,190.2 29.7,191.7 26.3,193 23.4,181.4 26.5,181 29.4,180.6 31.9,180.1 34.1,179.7 36,179.2 37.6,178.7 39,178.2 40.3,177.6 41.4,176.9 41.9,175.8" fill="black"></path>
  <path data-v-f2e577de="" d="M 26.3,193 L 21.8,192.3 19,188.7 19.8,184.2 23.4,181.4" fill="black"></path>
  <path data-v-f2e577de="" d="M 70.2,174.4 L 72.7,175.3 75.2,175.5 77.5,175.8 79.5,176.2 81.3,176.7 83,177.2 84.7,178.1 86.2,179.5 87.5,181.9 87.6,185 76.2,181.2 76.5,183.1 77.3,184.1 77.9,184.1 77.9,183.4 77.5,182.5 76.7,181.3 75.5,180.1 73.9,178.7 72,177.1 69.6,176.1" fill="black"></path>
  <path data-v-f2e577de="" d="M 87.6,185 L 84.6,188.4 80,188.8 76.6,185.8 76.2,181.2" fill="black"></path>
  <path data-v-f2e577de="" d="M 108.1,174.3 L 111.7,175.1 115,175.3 118,175.6 120.7,175.9 123.1,176.2 125.2,176.6 127.2,177.1 129,177.8 130.9,178.9 132.7,181.2 121.3,185 122.3,186 122.8,185.8 122.5,185 121.6,184 120.3,182.9 118.6,181.6 116.4,180.3 113.9,178.8 111.1,177.2 107.7,176.1" fill="black"></path>
  <path data-v-f2e577de="" d="M 132.7,181.2 L 132.3,185.8 128.9,188.8 124.3,188.4 121.3,185" fill="black"></path>
  <path data-v-f2e577de="" d="M 148.1,174.3 L 152.6,174.9 156.9,175.1 160.8,175.5 164.4,176 167.6,176.6 170.5,177.3 173.2,178.1 175.6,179.1 177.9,180.3 180,182 170.3,189.2 170.4,188.6 169.8,187.6 168.7,186.4 167,185.1 164.9,183.7 162.3,182.2 159.3,180.7 155.9,179.1 152.1,177.4 147.7,176" fill="black"></path>
  <path data-v-f2e577de="" d="M 180,182 L 181,186.4 178.7,190.4 174.3,191.4 170.3,189.2" fill="black"></path>
</svg>