<svg data-v-f2e577de=""
  xmlns="http://www.w3.org/2000/svg"
  xmlns:xlink="http://www.w3.org/1999/xlink" version="1.1" baseProfile="full" viewBox="0 0 200 200" width="50" height="50">
  <path data-v-f2e577de="" d="M 123,60 L 185,60 185,64 123,64" fill="black"></path>
  <path data-v-f2e577de="" d="M 185,60 L 161,62 173,50" fill="black"></path>
  <path data-v-f2e577de="" d="M 160,16 L 160,183 148,189 148,14" fill="black"></path>
  <path data-v-f2e577de="" d="M 160,16 L 163,18 158,21" fill="black"></path>
  <path data-v-f2e577de="" d="M 158,62 L 157.9,62.7 155.7,76.4 153.1,89.4 150.4,101.6 147.3,113 144,123.6 140.4,133.5 136.5,142.6 132.3,150.8 127.7,158.1 122.7,164.4 121.2,163.5 124.4,156.3 127.4,148.5 130.4,140.1 133.2,131 135.9,121.3 138.3,110.7 140.6,99.5 142.6,87.5 144.4,74.7 145.9,62" fill="black"></path>
  <path data-v-f2e577de="" d="M 157,62.8 L 160.2,75.2 163.2,86.9 166.2,97.7 169.2,107.8 172.2,117.1 175.3,125.6 178.5,133.3 181.8,140.2 185.2,146.2 188.5,151.4 177.4,158.5 174.1,152.1 171.1,145.1 168.2,137.3 165.6,128.9 163.3,119.8 161.1,109.9 159.1,99.3 157.4,88 156.1,75.9 155.2,63.1" fill="black"></path>
  <path data-v-f2e577de="" d="M 177.4,158.5 L 188.5,151.4 178.6,160.4" fill="black"></path>
</svg>