<svg xmlns="http://www.w3.org/2000/svg"
  xmlns:xlink="http://www.w3.org/1999/xlink" version="1.1" baseProfile="full" viewBox="-2 -20 25 25" height="50" width="50">
  <path d="M 4.84375 -15.203125 L 5.859375 -14.09375 L 5.859375 -14.0625 C 8.640625 -14.457031 10.554688 -14.757812 11.609375 -14.96875 C 12.703125 -15.175781 13.726562 -15.394531 14.6875 -15.625 C 15.65625 -15.851562 16.226562 -16.0625 16.40625 -16.25 C 16.59375 -16.425781 16.640625 -16.632812 16.546875 -16.875 L 16.859375 -17 L 18.03125 -15.484375 C 18.132812 -15.296875 18.078125 -15.1875 17.859375 -15.15625 C 17.597656 -15.320312 17.15625 -15.296875 16.53125 -15.078125 C 14.425781 -14.640625 12.539062 -14.316406 10.875 -14.109375 C 9.300781 -13.921875 7.628906 -13.742188 5.859375 -13.578125 L 5.859375 -10.15625 C 5.890625 -7.113281 5.664062 -4.882812 5.1875 -3.46875 C 4.707031 -2.019531 4.070312 -0.816406 3.28125 0.140625 C 2.488281 1.171875 1.628906 1.972656 0.703125 2.546875 L 0.53125 2.34375 C 2.28125 0.65625 3.519531 -1.273438 4.25 -3.453125 C 4.695312 -4.742188 4.921875 -6.9375 4.921875 -10.03125 L 4.921875 -14.125 C 4.835938 -14.457031 4.691406 -14.726562 4.484375 -14.9375 Z M 4.84375 -15.203125 " style="stroke: none;"></path>
</svg>