<svg xmlns="http://www.w3.org/2000/svg"
  xmlns:xlink="http://www.w3.org/1999/xlink" version="1.1" baseProfile="full" viewBox="-2 -20 25 25" height="50" width="50">
  <path d="M 2.625 -16.484375 L 3.9375 -15.671875 L 17.265625 -15.671875 L 17.921875 -16.609375 C 18.867188 -15.953125 19.347656 -15.582031 19.359375 -15.5 C 19.398438 -15.34375 19.179688 -15.082031 18.703125 -14.71875 L 18.703125 -1.109375 L 18.78125 1 C 18.800781 1.15625 18.679688 1.332031 18.421875 1.53125 C 18.160156 1.726562 17.882812 1.835938 17.59375 1.859375 L 17.59375 -0.046875 L 3.734375 -0.046875 L 3.734375 1.328125 C 3.734375 1.535156 3.609375 1.726562 3.359375 1.90625 C 3.097656 2.03125 2.828125 2.097656 2.546875 2.109375 L 2.625 -1.0625 Z M 3.734375 -0.578125 L 17.59375 -0.578125 L 17.59375 -15.140625 L 3.734375 -15.140625 Z M 3.734375 -0.578125 " style="stroke: none;"></path>
</svg>