<svg xmlns="http://www.w3.org/2000/svg"
  xmlns:xlink="http://www.w3.org/1999/xlink" version="1.1" baseProfile="full" viewBox="-2 -20 25 25" height="50" width="50">
  <path d="M 8.40625 -6.9375 L 10.03125 -6.234375 C 10.21875 -6.160156 10.257812 -6.085938 10.15625 -6.015625 C 9.863281 -5.910156 9.65625 -5.765625 9.53125 -5.578125 L 9.53125 -0.703125 L 9.625 1.25 C 9.632812 1.65625 9.332031 1.96875 8.71875 2.1875 L 8.71875 -0.203125 C 7.15625 0.234375 5.945312 0.578125 5.09375 0.828125 C 4.132812 1.097656 3.515625 1.320312 3.234375 1.5 C 2.960938 1.675781 2.734375 1.914062 2.546875 2.21875 L 1.640625 1.203125 C 1.992188 0.984375 2.195312 0.738281 2.25 0.46875 L 2.25 -6.046875 C 2.226562 -6.265625 2.070312 -6.519531 1.78125 -6.8125 L 1.96875 -7.03125 L 3.625 -6.375 C 3.820312 -6.28125 3.859375 -6.1875 3.734375 -6.09375 C 3.460938 -6 3.242188 -5.875 3.078125 -5.71875 L 3.078125 0.59375 L 5.46875 0.046875 L 5.46875 -8.84375 C 5.5 -9.070312 5.316406 -9.359375 4.921875 -9.703125 L 5.09375 -9.921875 L 6.84375 -9.234375 C 7.039062 -9.160156 7.082031 -9.082031 6.96875 -9 C 6.707031 -8.945312 6.507812 -8.828125 6.375 -8.640625 L 6.375 -0.125 L 8.71875 -0.65625 L 8.71875 -5.859375 C 8.738281 -6.078125 8.570312 -6.351562 8.21875 -6.6875 Z M 14.609375 -9.84375 L 16.359375 -9.140625 C 16.554688 -9.078125 16.597656 -9.003906 16.484375 -8.921875 C 16.222656 -8.867188 16.023438 -8.742188 15.890625 -8.546875 L 15.890625 0.59375 L 18.3125 0.59375 L 18.3125 -6.1875 C 18.34375 -6.40625 18.179688 -6.664062 17.828125 -6.96875 L 18 -7.21875 L 19.625 -6.5625 C 19.8125 -6.488281 19.851562 -6.398438 19.75 -6.296875 C 19.457031 -6.210938 19.253906 -6.082031 19.140625 -5.90625 L 19.140625 -0.453125 L 19.21875 1.09375 C 19.226562 1.570312 18.925781 1.882812 18.3125 2.03125 L 18.3125 1 L 12.78125 1 L 12.140625 1.890625 L 11.078125 1.046875 C 11.429688 0.710938 11.632812 0.410156 11.6875 0.140625 L 11.6875 -6.375 C 11.664062 -6.59375 11.507812 -6.847656 11.21875 -7.140625 L 11.40625 -7.359375 L 13.0625 -6.75 C 13.226562 -6.65625 13.25 -6.554688 13.125 -6.453125 C 12.875 -6.378906 12.671875 -6.269531 12.515625 -6.125 L 12.515625 0.59375 L 14.984375 0.59375 L 14.984375 -8.75 C 15.015625 -8.988281 14.832031 -9.28125 14.4375 -9.625 Z M 9.84375 -17.234375 L 11.609375 -16.53125 C 11.796875 -16.457031 11.835938 -16.378906 11.734375 -16.296875 C 11.472656 -16.242188 11.273438 -16.125 11.140625 -15.9375 L 11.140625 -11.15625 L 16.84375 -11.15625 L 16.84375 -14.5625 C 16.863281 -14.78125 16.695312 -15.039062 16.34375 -15.34375 L 16.53125 -15.59375 L 18.234375 -14.9375 C 18.421875 -14.863281 18.460938 -14.769531 18.359375 -14.65625 C 18.066406 -14.582031 17.859375 -14.457031 17.734375 -14.28125 L 17.734375 -12.25 L 17.828125 -10.671875 C 17.835938 -10.210938 17.507812 -9.894531 16.84375 -9.71875 L 16.84375 -10.75 L 4.8125 -10.75 L 4.1875 -9.953125 L 3.03125 -10.703125 C 3.382812 -11.035156 3.59375 -11.335938 3.65625 -11.609375 L 3.65625 -14.75 C 3.625 -14.96875 3.460938 -15.21875 3.171875 -15.5 L 3.359375 -15.734375 L 5.109375 -15.109375 C 5.273438 -15.015625 5.296875 -14.921875 5.171875 -14.828125 C 4.921875 -14.742188 4.710938 -14.632812 4.546875 -14.5 L 4.546875 -11.15625 L 10.234375 -11.15625 L 10.234375 -16.140625 C 10.265625 -16.367188 10.082031 -16.65625 9.6875 -17 Z M 9.84375 -17.234375 " style="stroke: none;"></path>
</svg>