<svg xmlns="http://www.w3.org/2000/svg"
  xmlns:xlink="http://www.w3.org/1999/xlink" version="1.1" baseProfile="full" viewBox="-2 -20 25 25" height="50" width="50">
  <path  d="M 14.640625 -16.578125 L 16.328125 -15.875 C 16.429688 -15.832031 16.484375 -15.75 16.484375 -15.625 C 16.484375 -15.582031 16.441406 -15.539062 16.359375 -15.5 L 15.671875 -15.171875 L 15.671875 -0.046875 L 18.09375 -0.046875 L 18.09375 -12.390625 L 19.734375 -11.765625 C 19.890625 -11.648438 19.914062 -11.554688 19.8125 -11.484375 C 19.8125 -11.441406 19.59375 -11.304688 19.15625 -11.078125 L 19.15625 -1.234375 L 19.234375 1.25 C 19.179688 1.457031 19.003906 1.625 18.703125 1.75 C 18.410156 1.851562 18.207031 1.90625 18.09375 1.90625 L 18.09375 0.515625 L 12.1875 0.515625 L 11.5625 1.25 L 10.34375 0.265625 C 10.757812 0.078125 10.976562 -0.160156 11 -0.453125 L 11 -12.640625 L 12.59375 -12.0625 C 12.65625 -11.9375 12.671875 -11.851562 12.640625 -11.8125 C 12.597656 -11.726562 12.390625 -11.601562 12.015625 -11.4375 L 12.015625 -0.046875 L 14.640625 -0.046875 Z M 5.171875 -16.53125 L 6.765625 -15.828125 C 6.992188 -15.742188 6.96875 -15.625 6.6875 -15.46875 L 6.15625 -15.171875 L 6.15625 -1.234375 L 8.203125 -1.59375 L 8.203125 -12.34375 L 9.796875 -11.734375 C 9.835938 -11.703125 9.867188 -11.632812 9.890625 -11.53125 C 9.890625 -11.46875 9.640625 -11.328125 9.140625 -11.109375 L 9.140625 -1.6875 L 9.234375 -0.125 C 9.234375 0.0078125 9.132812 0.164062 8.9375 0.34375 C 8.738281 0.519531 8.492188 0.617188 8.203125 0.640625 L 8.203125 -1.15625 C 6.066406 -0.613281 4.660156 -0.222656 3.984375 0.015625 C 3.304688 0.304688 2.828125 0.59375 2.546875 0.875 L 1.640625 -0.125 C 1.992188 -0.332031 2.1875 -0.566406 2.21875 -0.828125 L 2.21875 -12.515625 L 3.734375 -11.859375 C 3.828125 -11.816406 3.878906 -11.757812 3.890625 -11.6875 C 3.847656 -11.625 3.601562 -11.472656 3.15625 -11.234375 L 3.15625 -0.578125 L 5.171875 -1.03125 Z M 5.171875 -16.53125 " style="stroke: none;"></path>
</svg>