<svg xmlns="http://www.w3.org/2000/svg"
  xmlns:xlink="http://www.w3.org/1999/xlink" version="1.1" baseProfile="full" viewBox="-2 -20 25 25" height="50" width="50">
  <path d="M 10.125 -16.453125 L 11.8125 -15.59375 C 12.144531 -15.507812 12.171875 -15.382812 11.890625 -15.21875 L 11.234375 -14.890625 L 11.234375 -0.578125 L 16.78125 -0.578125 L 16.78125 -13.25 L 18.453125 -12.34375 C 18.546875 -12.300781 18.601562 -12.25 18.625 -12.1875 C 18.632812 -12.082031 18.609375 -12.015625 18.546875 -11.984375 L 17.890625 -11.6875 L 17.890625 -1.109375 L 17.96875 0.84375 C 17.945312 1.050781 17.796875 1.242188 17.515625 1.421875 C 17.265625 1.609375 17.019531 1.71875 16.78125 1.75 L 16.78125 -0.078125 L 4.765625 -0.078125 L 3.8125 0.921875 L 2.421875 -0.375 C 3.109375 -0.613281 3.453125 -0.898438 3.453125 -1.234375 L 3.453125 -13.046875 L 5.375 -12.140625 C 5.414062 -12.085938 5.414062 -12.019531 5.375 -11.9375 C 5.363281 -11.84375 5.085938 -11.691406 4.546875 -11.484375 L 4.546875 -0.578125 L 10.125 -0.578125 Z M 10.125 -16.453125 " style="stroke: none;"></path>
</svg>