<svg xmlns="http://www.w3.org/2000/svg"
  xmlns:xlink="http://www.w3.org/1999/xlink" version="1.1" baseProfile="full" viewBox="-2 -20 25 25" height="50" width="50">
  <path d="M 2.421875 -8.734375 L 9.84375 -8.734375 L 9.84375 -15.828125 L 11.984375 -14.96875 C 12.125 -14.84375 12.078125 -14.71875 11.859375 -14.609375 L 11.03125 -14.234375 L 11.03125 -8.734375 L 16.203125 -8.734375 L 17.234375 -9.96875 L 18.75 -8.609375 C 18.828125 -8.546875 18.875 -8.484375 18.875 -8.40625 C 18.875 -8.25 18.75 -8.15625 18.5 -8.15625 L 11.03125 -8.15625 L 11.03125 0.34375 L 17.46875 0.34375 L 18.421875 -0.90625 L 19.890625 0.46875 C 19.96875 0.515625 20.015625 0.59375 20.015625 0.671875 C 20.015625 0.84375 19.890625 0.921875 19.640625 0.921875 L 2.75 0.921875 C 2.46875 0.90625 1.984375 0.96875 1.359375 1.09375 L 1.03125 0.34375 L 9.84375 0.34375 L 9.84375 -8.15625 L 4.140625 -8.15625 C 3.828125 -8.15625 3.359375 -8.09375 2.703125 -8 Z M 2.421875 -8.734375 " style="stroke: none;"></path>
</svg>